SplineFontDB: 1.0
FontName: MnSymbolS-Bold7
FullName: MnSymbolS-Bold7
FamilyName: MnSymbolS-Bold7
Weight: Regular
Copyright: Generated from MetaFont bitmap by mftrace 1.1.17, http://www.xs4all.nl/~hanwen/mftrace/ 
Version: 001.001
ItalicAngle: 0
UnderlinePosition: -100
UnderlineWidth: 50
Ascent: 800
Descent: 200
NeedsXUIDChange: 1
UniqueID: 4208547
OS2TypoAscent: 0
OS2TypoAOffset: 1
OS2TypoDescent: 0
OS2TypoDOffset: 1
OS2TypoLinegap: 0
OS2WinAscent: 0
OS2WinAOffset: 1
OS2WinDescent: 0
OS2WinDOffset: 1
HheadAscent: 0
HheadAOffset: 1
HheadDescent: 0
HheadDOffset: 1
OS2Vendor: 'PfEd'
Encoding: Custom
UnicodeInterp: none
NameList: Adobe Glyph List
DisplaySize: -24
AntiAlias: 1
FitToEm: 1
WinInfo: 54 18 9
BeginPrivate: 3
lenIV 1 4
BlueValues 2 []
ForceBold 5 false
EndPrivate
BeginChars: 256 28
StartChar: A
Encoding: 65 65 2
Width: 1039
Flags: HMW
Back
155.889 119.707 m 0
 163.253 113.853 171.891 109.026 181.466 105.541 c 0
 189.748 102.526 198.731 100.508 208.186 99.5957 c 0
 262.849 94.3213 353.696 209.474 399.385 264.752 c 0
 501.01 387.709 590.127 516.669 665.562 648.817 c 1
 750.364 648.817 l 1
 748.927 645.678 747.391 642.575 745.758 639.529 c 0
 658.634 477.016 550.192 312.706 418.373 153.217 c 0
 327.755 43.5771 237.349 -58.5059 162.056 -51.2402 c 0
 149.839 -50.0615 138.183 -47.46 127.228 -43.4727 c 0
 114.562 -38.8633 102.833 -32.4082 92.2803 -24.0186 c 0
 61.8252 0.192383 56.0654 20.7539 51.167 38.127 c 0
 43.4102 65.6406 57.2744 114.703 80.0732 144.869 c 0
 102.872 175.035 126.368 175.426 133.772 147.425 c 0
 136.071 138.729 143.219 129.78 155.889 119.707 c 0
891.007 242.837 m 0
 900.019 190.718 914.517 140.835 934.266 93.9033 c 0
 934.987 92.1875 935.63 90.9521 936.324 89.751 c 0
 942.932 78.3057 955.114 72.8975 963.489 73.459 c 0
 964.688 73.5391 960.729 73.2471 953.891 69.7969 c 1
 1001.46 93.7988 l 2
 1040.05 113.269 1075.45 113.226 1080.48 93.7041 c 0
 1085.5 74.1816 1058.27 42.5361 1019.68 23.0664 c 2
 972.103 -0.935547 l 2
 939.759 -17.2529 909.544 -24.5967 886.809 -26.1221 c 0
 838.09 -29.3887 811.324 -8.90234 799.855 10.9619 c 0
 798.56 13.2051 797.358 15.5098 796.01 18.7148 c 0
 775.272 67.9941 760.053 120.349 750.581 175.132 c 0
 722.833 335.616 706.295 500.235 701.069 668.03 c 0
 700.397 689.61 731.432 721.053 770.342 738.213 c 0
 809.251 755.373 841.376 751.785 842.048 730.205 c 0
 847.213 564.35 863.563 401.565 891.007 242.837 c 0
436.91 158.983 m 2
 406.006 158.982 400.171 181.383 423.888 208.983 c 0
 447.604 236.583 491.935 258.983 522.839 258.983 c 2
 863.759 258.984 l 2
 894.663 258.984 900.497 236.585 876.781 208.984 c 0
 853.064 181.384 808.734 158.984 777.83 158.984 c 2
 436.91 158.983 l 2
EndSplineSet
Fore
737 259 m 1
 722 360 712 463 706 567 c 1
 646 463 577 359 499 255 c 1
 508 258 516 259 523 259 c 2
 737 259 l 1
49 56 m 0
 49 99 81 168 113 168 c 0
 123 168 130 161 134 147 c 0
 140 124 180 99 212 99 c 0
 267 99 354.768 211.191 399 265 c 0
 500.468 388.438 590 517 666 649 c 1
 702 649 l 1
 702 653 701 666 701 669 c 0
 701 701 767 749 814 749 c 0
 831 749 842 743 842 730 c 0
 853 383 904 146 936 90 c 0
 942 79 953 74 961 73 c 1
 1001 94 l 2
 1021 104 1039 108 1053 108 c 0
 1068 108 1081 103 1081 89 c 0
 1081 69 1055 41 1020 23 c 2
 972 -1 l 2
 938 -18 905 -27 877 -27 c 0
 838 -27 809 -11 796 19 c 0
 777 63 763 110 754 159 c 1
 437 159 l 2
 432 159 428 160 424 161 c 1
 332 48 244 -52 170 -52 c 0
 110 -52 49 -2 49 56 c 0
EndSplineSet
EndChar
StartChar: B
Encoding: 66 66 3
Width: 838
Flags: HMW
Back
135.654 195.685 m 0
 167.258 322.097 189.675 448.439 202.704 573.674 c 1
 168.933 556.636 l 2
 130.343 537.166 94.9443 537.209 89.918 556.73 c 0
 84.8916 576.253 112.131 607.898 150.721 627.368 c 2
 268.671 686.877 l 2
 290.451 697.866 309.444 702.664 325.587 701.254 c 0
 341.729 699.844 349.271 692.729 348.191 679.932 c 0
 336.013 535.766 311.528 389.796 274.937 243.429 c 0
 258.129 176.199 228.628 108.796 186.418 43.6807 c 0
 168.854 16.5859 126.415 -9.54688 91.6885 -14.6533 c 0
 56.9619 -19.7588 43.0322 -1.91309 60.5967 25.1816 c 0
 94.752 77.8701 120.762 136.112 135.654 195.685 c 0
474.891 84.3789 m 0
 539.232 84.3789 584.609 98.5439 603.258 106.608 c 0
 608.291 108.785 612.225 110.803 615.297 112.576 c 0
 632.525 122.522 639.401 136.504 642.592 142.889 c 0
 645.66 149.026 648.502 156.391 650.613 164.836 c 0
 659.393 199.949 655.293 230.521 640.717 255.769 c 0
 602.344 322.234 494.332 346.381 388.459 328.501 c 0
 354.93 322.839 339.935 335.514 351.027 360.141 c 0
 362.12 384.767 393.901 409.355 430.357 421.519 c 0
 542.239 458.844 614.349 485.483 655.771 509.398 c 0
 662.782 513.445 666.698 516.144 669.009 518.005 c 0
 670.062 518.852 668.543 516.641 668.869 517.944 c 0
 673.347 535.855 671.229 552.526 663.264 566.325 c 0
 643.214 601.053 593.894 609.906 556.558 603.009 c 0
 538.371 599.648 513.162 592.416 488.406 578.123 c 0
 416.233 536.454 319.094 420.055 274.937 243.429 c 0
 268.882 219.21 232.769 188.859 194.327 175.683 c 0
 155.885 162.505 129.6 171.466 135.654 195.685 c 0
 177.49 363.027 280.885 540.194 452.95 639.535 c 0
 504.204 669.127 560.567 690.29 613.197 700.014 c 0
 711.206 718.122 775.774 686.609 799.731 645.114 c 0
 811.93 623.986 816.104 597.502 808.151 565.688 c 0
 801.934 540.82 781.311 513.24 747.08 485.684 c 0
 729.04 471.16 710.047 458.852 691.228 447.985 c 0
 676.363 439.404 660.026 430.974 642.883 422.819 c 1
 704.927 407.486 752.591 377.156 777.185 334.559 c 0
 796.018 301.938 802.054 261.212 789.896 212.58 c 0
 786.609 199.433 781.842 186.44 775.337 173.425 c 0
 752.92 128.57 709.305 84.9678 650.753 51.1641 c 0
 635.016 42.0781 619.128 34.2197 603.541 27.4795 c 0
 525.569 -6.23926 446.124 -15.5176 389.053 -15.5176 c 0
 323.337 -15.5176 264.648 -2.375 214.039 21.916 c 0
 193.609 31.7217 203.911 60.5928 237.033 86.3623 c 0
 270.155 112.131 313.617 125.087 334.047 115.281 c 0
 377.373 94.4854 426.145 84.3789 474.891 84.3789 c 0
EndSplineSet
Fore
812 597 m 0
 812 562 800 498 643 423 c 1
 719 404 796 354 796 261 c 0
 796 113 613 -16 389 -16 c 0
 323 -16 265 -2 214 22 c 0
 207 25 204 31 204 38 c 0
 204 70 270 119 317 119 c 0
 338 119 382 84 475 84 c 0
 551 84 600 103 615 113 c 0
 641 128 655 163 655 198 c 0
 655 300 547 334 456 334 c 0
 407 334 390 327 374 327 c 0
 357 327 347 334 347 346 c 0
 347 361 369 401 430 422 c 0
 458 431 630 487 669 518 c 1
 670 524 671 530 671 536 c 0
 671 577 633 605 581 605 c 0
 450 605 323.912 435.771 275 243 c 0
 258 176 229 109 186 44 c 0
 166 12 115 -16 81 -16 c 0
 63 -16 53 -8 53 4 c 0
 53 26 106 77 136 196 c 0
 167 322 190 448 203 574 c 1
 169 557 l 2
 150 547 131 542 117 542 c 0
 103 542 89 547 89 562 c 0
 89 581 115.122 608.757 151 627 c 2
 269 687 l 2
 289 697 307 702 321 702 c 0
 338 702 348 695 348 682 c 0
 348 669 337 576 334 549 c 1
 483 695 636 705 668 705 c 0
 754 705 812 662 812 597 c 0
EndSplineSet
EndChar
StartChar: C
Encoding: 67 67 4
Width: 700
Flags: HMW
Back
512.221 529.901 m 0
 523.638 554.709 518.072 576.893 513.352 585.07 c 0
 508.004 594.332 500.535 598.111 495.104 599.341 c 0
 488.25 600.892 481.484 601.562 475.343 601.562 c 0
 435.54 601.562 370.516 595.898 316.467 564.693 c 0
 271.231 538.576 211.021 479.084 182.961 366.843 c 0
 167.084 303.335 171.153 236.252 203.324 180.529 c 0
 220.854 150.165 263.594 96.5264 348.204 83.835 c 0
 415.192 73.7871 466.675 97.0654 490.32 110.717 c 0
 505.368 119.404 520.685 130.477 536.855 145.8 c 0
 565.516 172.958 610.142 191.141 636.467 186.387 c 0
 662.792 181.632 660.897 155.731 632.236 128.573 c 0
 597.315 95.4814 559.971 69.0469 525.776 49.3047 c 0
 430.962 -5.43652 331.316 -27.6445 246.839 -14.9736 c 0
 142.94 0.611328 90.6602 60.5078 66.8555 101.74 c 0
 29.3799 166.65 25.1768 245.088 43.6797 319.099 c 0
 53.5205 358.463 94.4492 518.395 281.011 626.105 c 0
 378.114 682.167 477.5 701.46 561.181 701.459 c 0
 576.19 701.459 589.814 699.885 602.287 697.062 c 0
 622.523 692.482 639.315 682.054 649.82 663.859 c 0
 666.872 634.324 661.967 597.252 646.404 563.437 c 0
 634.832 538.29 620.882 513.295 604.441 488.63 c 0
 586.33 461.457 543.676 435.609 509.232 430.934 c 0
 474.787 426.257 461.531 444.514 479.643 471.686 c 0
 491.896 490.069 502.884 509.613 512.221 529.901 c 0
EndSplineSet
Fore
472 450 m 0
 472 471 519 517 519 562 c 0
 519 604 483 602 475 602 c 0
 436 602 371 596 316 565 c 0
 237 519 174 404 174 296 c 0
 174 158 276 81 382 81 c 0
 434 81 489 100 537 146 c 0
 562.021 169.978 601 187 627 187 c 0
 645 187 655 180 655 168 c 0
 655 157 646.94 143.064 632 129 c 0
 532.599 35.4258 406 -18 293 -18 c 0
 138 -18 34 83 34 236 c 0
 34 469 263 701 561 701 c 0
 647 701 661 654 661 623 c 0
 661 585 639 540 604 489 c 0
 584 457 534 430 499 430 c 0
 481 430 472 438 472 450 c 0
EndSplineSet
EndChar
StartChar: D
Encoding: 68 68 5
Width: 1007
Flags: HMW
Back
311.977 319.099 m 0
 336.025 415.295 348.43 511.461 348.78 605.317 c 0
 348.861 627.227 380.512 658.593 419.428 675.331 c 0
 458.343 692.07 489.86 687.875 489.778 665.966 c 0
 489.414 568.283 476.525 467.91 451.259 366.843 c 0
 425.992 265.775 388.538 164.754 339.383 65.7031 c 0
 326.367 39.4756 286.039 11.2891 249.364 2.78613 c 0
 212.69 -5.71582 193.488 8.66992 206.505 34.8975 c 0
 252.403 127.386 287.929 222.904 311.977 319.099 c 0
386.318 100.248 m 2
 533.701 100.248 655.913 132.671 727.833 174.193 c 0
 788.559 209.253 826.8 259.294 843.214 324.949 c 0
 858.729 387.007 853.126 434.68 831.688 471.812 c 0
 783.936 554.523 654.338 585.693 489.414 585.693 c 2
 376.36 585.693 l 2
 345.487 585.693 339.658 608.07 363.35 635.642 c 0
 387.04 663.213 431.324 685.59 462.198 685.59 c 2
 575.252 685.59 l 2
 735.559 685.59 905.486 659.151 968.156 550.602 c 0
 994.376 505.187 1000.89 446.267 982.495 372.693 c 0
 955.521 264.795 874.068 176.739 763.289 112.781 c 0
 604.973 21.3779 422.63 0.351562 300.48 0.351562 c 2
 159.028 0.351562 l 2
 128.154 0.351562 122.325 22.7285 146.017 50.2998 c 0
 169.708 77.8711 213.992 100.248 244.865 100.248 c 2
 386.318 100.248 l 2
191.57 558.611 m 0
 182.372 553.301 175.947 537.668 175.384 536.357 c 0
 174.523 534.353 172.245 529.043 170.149 520.661 c 0
 164.095 496.442 127.981 466.092 89.54 452.915 c 0
 51.0977 439.737 24.8125 448.699 30.8672 472.918 c 0
 32.9629 481.3 35.8418 490.43 40.1953 500.565 c 0
 66.0088 560.66 121.054 599.781 156.114 620.023 c 0
 178.179 632.763 203.841 644.704 233.919 654.753 c 0
 282.289 670.914 350.865 685.59 462.198 685.59 c 0
 493.071 685.59 498.9 663.213 475.209 635.642 c 0
 451.518 608.07 407.233 585.693 376.36 585.693 c 0
 300.754 585.693 245.351 578.145 209.893 566.298 c 0
 199.896 562.958 193.94 559.979 191.57 558.611 c 0
EndSplineSet
Fore
300 0 m 2
 159 0 l 2
 141 0 131 8 131 20 c 0
 131 52 192 95 237 100 c 1
 294 230 344 398 349 585 c 1
 249 583 204.031 565.946 192 559 c 0
 185.018 554.969 175 541 170 521 c 0
 163 491 104 447 58 447 c 0
 41 447 30 454 30 466 c 0
 30 468 30 471 31 473 c 1
 46 533 127 686 462 686 c 2
 575 686 l 2
 861 686 993 601 993 451 c 0
 993 427 988.984 401.004 982 373 c 0
 930.882 168.029 662 0 300 0 c 2
386 100 m 2
 534 100 656 133 728 174 c 0
 818 226 852 313 852 386 c 0
 852 419 844 450 832 472 c 0
 784 555 654 586 489 586 c 2
 487 586 l 1
 473 396 416 228 356 100 c 1
 386 100 l 2
EndSplineSet
EndChar
StartChar: E
Encoding: 69 69 6
Width: 688
Flags: HMW
Back
540.961 582.376 m 0
 538.829 586.068 533.208 593.686 522.628 596.407 c 0
 522.069 596.551 523.339 596.496 519.681 596.986 c 0
 496.833 600.054 473.635 601.562 450.331 601.562 c 0
 407.969 601.562 374.508 594.477 354.181 587.708 c 0
 343.771 584.242 336.865 580.888 333.141 578.737 c 0
 325.475 574.312 318.672 567.679 312.116 552.326 c 0
 310.881 549.435 309.164 545.222 307.424 538.263 c 0
 302.984 520.503 303.242 502.642 312.828 486.039 c 0
 336.387 445.232 408.512 427.219 495.457 427.219 c 0
 526.33 427.219 532.159 404.842 508.468 377.271 c 0
 484.777 349.698 440.493 327.322 409.619 327.322 c 0
 323.58 327.322 213.529 342.869 176.359 407.249 c 0
 163.735 429.117 159.715 456.809 168.143 490.519 c 0
 169.598 496.341 172.318 505.74 176.851 516.354 c 0
 197.063 563.688 240.078 606.891 297.685 640.149 c 0
 325.188 656.028 352.638 667.65 378.484 676.256 c 0
 394.78 681.683 454.552 701.459 536.169 701.459 c 0
 564.87 701.459 592.733 699.606 619.688 695.988 c 0
 623.347 695.497 629.56 694.226 631.857 693.634 c 0
 650.988 688.712 667.249 678.8 677.43 661.166 c 0
 682.069 653.128 684.932 644.088 685.693 634 c 0
 687.23 613.638 679.365 591.808 666.247 572.513 c 0
 647.736 545.289 604.931 519.654 570.699 515.295 c 0
 536.468 510.935 523.709 529.491 542.22 556.716 c 0
 543.91 559.202 545.171 565.24 544.812 569.982 c 0
 544.5 574.121 543.202 578.495 540.961 582.376 c 0
264.334 292.595 m 0
 255.05 287.234 246.018 281.004 236.858 272.607 c 0
 220.069 257.216 200.793 231.895 191.678 195.437 c 0
 186.537 174.871 188.846 157.435 197.455 142.522 c 0
 217.357 108.05 275.029 84.3789 360.052 84.3789 c 0
 419.736 84.3789 462.941 105.278 484.496 117.723 c 0
 498.539 125.83 513.252 136.081 528.488 149.421 c 0
 559.02 176.152 603.383 192.366 627.513 185.613 c 0
 651.643 178.859 646.447 151.684 615.916 124.952 c 0
 587.005 99.6396 554.452 76.2285 519.952 56.3096 c 0
 479.677 33.0576 384.627 -15.5166 274.215 -15.5176 c 0
 186.055 -15.5176 94.4746 5.72949 60.9873 63.7324 c 0
 48.1855 85.9072 43.9238 113.804 52.3965 147.692 c 0
 64.9258 197.81 94.8838 247.169 144.698 292.837 c 0
 172.737 318.541 201.989 338.482 228.879 354.007 c 0
 321.533 407.501 418.735 427.219 495.457 427.219 c 0
 526.33 427.219 532.159 404.842 508.469 377.271 c 0
 484.777 349.699 440.493 327.322 409.62 327.322 c 0
 376.366 327.322 313.936 321.231 264.334 292.595 c 0
EndSplineSet
Fore
534 534 m 0
 534 550 545 554 545 567 c 0
 545 579 538 595 520 597 c 0
 497 600 474 602 450 602 c 0
 336 602 305 568 305 518 c 0
 305 456 384 427 495 427 c 0
 514 427 523 420 523 408 c 0
 523 376 457 327 410 327 c 0
 367 327 285.2 316.78 237 273 c 0
 217.083 254.909 189 214 189 175 c 0
 189 120 254 84 360 84 c 0
 505 84 531 187 615 187 c 0
 632 187 643 180 643 168 c 0
 643 156 634 140 616 125 c 0
 538 56 411 -16 274 -16 c 0
 182 -16 48 11 48 113 c 0
 48 162 84 273 235 358 c 1
 194 377 164 408 164 456 c 0
 164 570 319 701 536 701 c 0
 609 701 686 697 686 628 c 0
 686 569 615 515 561 515 c 0
 544 515 534 522 534 534 c 0
EndSplineSet
EndChar
StartChar: F
Encoding: 70 70 7
Width: 907
Flags: HMW
Back
269.231 70.543 m 0
 273.065 70.6768 267.824 69.8506 264.066 67.6807 c 1
 264.077 67.6885 272.266 74.4014 282.179 90.0557 c 0
 328.121 162.614 367.514 238.537 399.359 316.401 c 0
 438.639 412.44 464.999 510.822 477.299 608.284 c 0
 480.21 631.352 514.067 662.33 552.874 677.432 c 0
 591.681 692.533 620.813 686.067 617.902 663 c 0
 604.976 560.562 577.247 456.558 535.167 353.671 c 0
 501.244 270.728 458.992 189.074 408.813 109.826 c 0
 369.275 47.3828 322.868 22.0625 299.522 6.26855 c 1
 262.108 -15.333 223.499 -28.0322 187.969 -29.2725 c 0
 167.511 -29.9873 87.0898 -31.6514 28.9697 25.7334 c 0
 14.6357 39.8857 32.3652 70.5762 68.5449 94.2383 c 0
 104.725 117.899 145.722 125.617 160.056 111.464 c 0
 173.742 97.9502 210.567 68.4951 269.231 70.543 c 0
881.09 582.638 m 0
 881.071 582.67 883.312 580.165 883.288 580.177 c 0
 870.522 585.995 809.223 585.693 789.521 585.693 c 2
 433.879 585.693 l 2
 396.338 585.693 366.447 579.105 348.378 573.128 c 0
 337.907 569.664 330.803 566.237 326.681 563.857 c 0
 325.973 563.449 306.819 554.055 298.471 520.661 c 0
 292.416 496.442 256.303 466.092 217.861 452.915 c 0
 179.42 439.737 153.135 448.698 159.189 472.917 c 0
 174.438 533.912 225.226 587.166 291.225 625.27 c 0
 318.99 641.301 346.874 653.139 373.193 661.847 c 0
 434.852 682.244 488.281 685.59 519.717 685.59 c 2
 875.358 685.59 l 2
 916.855 685.59 975.187 686.365 1002.39 673.964 c 0
 1010.27 670.374 1014.79 666.224 1017.56 661.428 c 0
 1021.26 655.014 1021.3 648.079 1019.58 641.215 c 0
 1013.53 616.997 977.414 586.646 938.973 573.469 c 0
 900.53 560.292 874.245 569.253 880.3 593.471 c 0
 880.302 593.48 881.09 582.638 881.09 582.638 c 0
758.844 285.036 m 1
 424.299 285.036 l 2
 393.394 285.036 387.56 307.437 411.276 335.037 c 0
 434.993 362.637 479.323 385.037 510.228 385.037 c 2
 844.772 385.037 l 2
 866.292 385.037 875.742 375.815 871.521 358.935 c 2
 867.553 343.063 l 2
 861.491 318.819 825.341 288.438 786.858 275.246 c 0
 748.377 262.055 722.065 271.025 728.127 295.269 c 2
 732.095 311.14 l 1
 750.578 323.262 771.57 327.252 778.953 320.048 c 0
 786.336 312.844 777.327 297.158 758.844 285.036 c 1
EndSplineSet
Fore
1021 650 m 0
 1021 615 954 567 907 567 c 0
 893 567 883 572 880 581 c 1
 865 585 819 586 796 586 c 2
 605 586 l 1
 592 517 572 449 547 385 c 1
 845 385 l 2
 863 385 873 378 873 366 c 0
 873 364 872 362 872 359 c 1
 868 343 l 2
 860 313 801 269 755 269 c 0
 740 269 729 275 728 285 c 1
 505 285 l 1
 476 223 443 164 409 110 c 0
 360 33 268 -29 172 -29 c 0
 89 -29 24 19 24 38 c 0
 24 70 90 119 137 119 c 0
 147 119 155 116 160 111 c 0
 173 98 208 70 263 70 c 2
 267 70 l 1
 313 118 400 319 400 319 c 2
 436 407 461 496 474 586 c 1
 434 586 l 2
 386 586 345 574 327 564 c 0
 326 563 307 554 298 521 c 0
 291 491 232 447 186 447 c 0
 169 447 158 454 158 466 c 0
 158 468 159 471 159 473 c 1
 188 590 351 686 520 686 c 2
 875 686 l 2
 982 686 1021 677 1021 650 c 0
EndSplineSet
EndChar
StartChar: G
Encoding: 71 71 8
Width: 770
Flags: HMW
Back
593.445 542.488 m 0
 595.893 546.21 596.542 549.254 596.941 550.817 c 0
 600.044 562.957 595.857 573.031 593.385 577.314 c 0
 591.069 581.325 585.06 589.767 573.361 592.495 c 0
 547.194 598.599 520.121 601.562 493.066 601.562 c 0
 403.869 601.562 346.12 580.102 316.244 562.854 c 0
 258.108 529.289 225.877 467.615 211.243 409.076 c 0
 198.368 357.577 202.334 303.501 228.441 258.281 c 0
 245.755 228.292 292.053 173.414 382.296 168.771 c 0
 435.608 166.028 473.419 183.054 492.051 193.811 c 0
 541.358 222.278 572.335 272.143 584.074 319.1 c 0
 590.129 343.317 626.242 373.668 664.684 386.846 c 0
 703.126 400.022 729.411 391.062 723.356 366.843 c 0
 702.134 281.954 634.771 194.327 527.506 132.398 c 0
 445.405 84.998 360.688 65.4111 290.427 69.0264 c 0
 194.607 73.9561 126.981 118.854 91.9727 179.492 c 0
 63.5244 228.768 54.373 290.982 71.9609 361.333 c 0
 99.5488 471.687 172.599 561.803 280.788 624.266 c 0
 332.19 653.943 433.249 701.459 578.904 701.459 c 0
 615.048 701.459 649.125 697.547 681.018 690.107 c 0
 701.669 685.291 719.08 674.764 729.854 656.104 c 0
 738.954 640.34 742.004 621.181 736.139 598.225 c 0
 733.204 586.744 727.946 574.18 718.744 560.188 c 0
 702.807 535.955 683.166 511.894 659.092 488.513 c 0
 631.025 461.255 586.368 442.499 559.41 446.646 c 0
 532.452 450.795 533.352 476.283 561.417 503.541 c 0
 572.287 514.098 583.448 527.288 593.445 542.488 c 0
400.328 -12.8193 m 0
 413.89 -12.8193 425.859 -10.5557 431.326 -7.39941 c 0
 438.725 -3.12793 443.974 2.42773 449.453 8.16406 c 0
 506.494 67.8877 551.328 188.115 584.074 319.099 c 0
 590.129 343.317 626.242 373.668 664.684 386.846 c 0
 703.125 400.022 729.41 391.062 723.356 366.843 c 0
 676.557 179.646 621.105 70.3408 553.587 -0.353516 c 0
 531.249 -23.7422 502.694 -48.0781 466.782 -68.8115 c 0
 413.798 -99.4014 361.117 -112.716 314.491 -112.716 c 0
 246.245 -112.716 179.73 -107.764 115.328 -97.9922 c 0
 88.3184 -93.8945 89.1357 -68.4404 117.153 -41.1748 c 0
 145.17 -13.9102 189.828 4.89258 216.838 0.793945 c 0
 276.774 -8.2998 338.146 -12.8193 400.328 -12.8193 c 0
EndSplineSet
Fore
209 1 m 0
 215 1 297 -13 400 -13 c 0
 430 -13 436 -6 449 8 c 0
 477 37 501 79 523 130 c 1
 454 91 378 69 307 69 c 0
 168 69 63 158 63 291 c 0
 63 360 96 518 281 624 c 0
 332 654 433 701 579 701 c 0
 671 701 739 685 739 621 c 0
 739 587 716 544 659 489 c 0
 634 464 595 446 567 446 c 0
 550 446 540 454 540 466 c 0
 540 497 598 526 598 561 c 0
 598 593 556 602 493 602 c 0
 321 602 242.517 530.866 211 409 c 0
 206.081 389.979 204 371 204 353 c 0
 204 247 284 168 394 168 c 0
 495 168 564 238 584 319 c 0
 592 349 650 393 697 393 c 0
 714 393 724 386 724 373 c 0
 724 371 724 369 723 367 c 2
 659 110 577 -5 467 -69 c 0
 414 -99 361 -113 314 -113 c 0
 246 -113 180 -108 115 -98 c 0
 102 -96 96 -89 96 -79 c 0
 96 -47 162 1 209 1 c 0
EndSplineSet
EndChar
StartChar: H
Encoding: 72 72 9
Width: 1123
Flags: HMW
Back
357.995 361.175 m 0
 372.753 420.209 381.516 479.26 384.094 537.309 c 0
 384.524 547.025 382.316 556.196 377.951 563.759 c 0
 369.058 579.162 354.177 584.644 344.073 585.548 c 0
 343.004 585.644 346.463 585.696 340.871 585.693 c 0
 332.174 585.689 285.872 586.315 245.784 572.395 c 0
 236.178 569.059 229.137 565.739 222.417 561.859 c 0
 216.737 558.58 210.806 554.553 204.25 549.215 c 0
 192.436 539.595 177.057 524.207 160.631 502.037 c 0
 140.315 474.619 96.8887 450.015 63.6963 447.117 c 0
 30.5049 444.221 20.0547 464.122 40.3701 491.541 c 0
 64.1162 523.588 91.3906 553.217 124.868 580.475 c 0
 143.921 595.987 164.962 610.571 186.961 623.272 c 0
 213.297 638.478 240.586 650.722 266.635 659.768 c 0
 333.738 683.071 392.343 685.575 426.653 685.59 c 0
 432.245 685.593 437.363 685.241 439.905 685.014 c 0
 471.614 682.177 499.612 668.194 514.419 642.548 c 0
 521.937 629.527 525.843 614.011 525.047 596.088 c 0
 522.321 534.717 513.059 472.046 497.277 408.919 c 0
 465.269 280.882 421.219 152.931 365.571 26.6367 c 0
 354.192 0.811523 314.754 -27.9854 277.539 -37.6406 c 0
 240.324 -47.2959 219.356 -34.1719 230.735 -8.34668 c 0
 284.279 113.174 326.937 236.937 357.995 361.175 c 0
864.36 277.479 m 0
 849.261 217.08 840.236 156.669 837.475 97.2617 c 0
 837.016 87.3887 839.248 78.0244 843.646 70.4062 c 0
 852.985 54.2305 868.506 50.9697 868.902 50.8652 c 0
 870.361 50.4844 868.441 50.7422 872.55 50.1055 c 0
 876.657 49.4688 870.871 50.0381 875.715 49.7686 c 0
 875.741 49.7666 855.74 48.876 878.172 49.7412 c 0
 908.873 50.9258 941.075 54.3486 953.253 59.1133 c 0
 953.264 59.1172 946.715 55.7793 947.228 56.0752 c 0
 947.228 56.0752 926.429 32.4463 929.229 43.6494 c 0
 935.284 67.8682 971.397 98.2188 1009.84 111.396 c 0
 1048.28 124.573 1074.57 115.612 1068.51 91.3936 c 0
 1059.18 54.0547 1025.19 19.2012 982.684 -5.33691 c 0
 971.339 -11.8867 958.83 -18.1582 943.222 -24.2646 c 0
 883.586 -47.5957 817.358 -49.2861 797.414 -50.0557 c 0
 791.806 -50.2715 786.066 -50.1016 783.379 -49.9512 c 0
 778.534 -49.6816 773.171 -49.0127 770.763 -48.6387 c 0
 766.654 -48.002 761.568 -46.8574 759.406 -46.292 c 0
 734.301 -39.7266 717.508 -26.2754 707.178 -8.38281 c 0
 699.58 4.77832 695.684 20.4834 696.525 38.582 c 0
 699.441 101.284 708.965 165.284 725.078 229.735 c 0
 757.587 359.773 802.129 489.724 858.267 618.036 c 0
 869.555 643.838 908.942 672.666 946.185 682.385 c 0
 983.428 692.103 1004.49 679.05 993.203 653.247 c 0
 939.112 529.613 895.935 403.779 864.36 277.479 c 0
222.109 258.673 m 2
 191.205 258.673 185.371 281.073 209.088 308.674 c 0
 232.804 336.273 277.135 358.674 308.039 358.674 c 2
 781.176 358.672 l 2
 812.081 358.672 817.915 336.272 794.198 308.672 c 0
 770.481 281.071 726.151 258.672 695.247 258.672 c 2
 222.109 258.673 l 2
EndSplineSet
Fore
228 -21 m 0
 228 -3 273 71 330 259 c 1
 222 259 l 2
 204 259 195 266 195 278 c 0
 195 310 261 359 308 359 c 2
 357 359 l 1
 375 432 384 492 384 528 c 0
 384 545 382 557 378 564 c 0
 370 577 356 586 341 586 c 0
 249 586 208 566 161 502 c 0
 137 470 89 447 58 447 c 0
 40 447 30 454 30 466 c 0
 30 473 33 482 40 492 c 0
 166 661 340 686 416 686 c 0
 508 686 525 635 525 601 c 0
 525 552 510 453 484 359 c 1
 761 359 l 1
 801 487 847.07 592.969 858 618 c 0
 871.084 647.963 927 686 969 686 c 0
 986 686 996 678 996 666 c 0
 996 662 995 658 993 653 c 0
 890 418 838 195 838 106 c 0
 838 89 840 77 844 70 c 0
 850 59 862 50 876 50 c 2
 876 50 856 49 878 50 c 0
 898 51 918 52 934 55 c 1
 953 90 1009 117 1042 117 c 0
 1059 117 1069 111 1069 98 c 0
 1069 74 1033.84 11.3991 943 -24 c 0
 904.935 -38.8328 844 -50 798 -50 c 0
 709 -50 696 6 696 34 c 0
 696 81 711 176 735 268 c 1
 721 262 707 259 695 259 c 2
 454 259 l 1
 417 143 375.986 50.0061 366 27 c 0
 352.982 -2.99206 297 -41 255 -41 c 0
 238 -41 228 -34 228 -21 c 0
EndSplineSet
EndChar
StartChar: I
Encoding: 73 73 10
Width: 739
Flags: HMW
Back
403.164 585.642 m 2
 373.501 585.642 216.414 587.328 170.443 567.005 c 0
 170.402 566.986 172.293 568.004 172.264 567.987 c 0
 172.26 567.985 186.784 587.489 183.075 572.654 c 0
 177.015 548.41 140.863 518.028 102.382 504.837 c 0
 63.9004 491.645 37.5879 500.614 43.6484 524.857 c 0
 53.7217 565.15 90.7168 602.872 136.771 629.462 c 0
 149.556 636.843 161.534 642.414 167.741 645.158 c 0
 252.05 682.43 351.643 685.642 489.093 685.643 c 2
 794.723 685.642 l 2
 825.627 685.642 831.461 663.242 807.744 635.642 c 0
 784.028 608.041 739.697 585.642 708.793 585.642 c 2
 403.164 585.642 l 2
558.617 589.688 m 1
 558.207 589.452 563.879 593.153 563.869 593.145 c 0
 521.068 552.352 485.559 396.641 478.109 366.843 c 0
 427.048 162.597 349.042 87.4414 287.535 47.5742 c 0
 284.666 45.7148 288.482 47.6084 272.875 38.5977 c 0
 243.597 21.6934 215.335 11.6523 193.78 6.55469 c 0
 174.995 2.11328 158.016 0.351562 142.261 0.351562 c 0
 111.388 0.351562 105.559 22.7285 129.249 50.2998 c 0
 152.94 77.8711 197.225 100.248 228.098 100.248 c 0
 233.232 100.248 237.402 100.749 239.962 101.354 c 0
 242.071 101.853 239.033 100.941 237.419 100.01 c 1
 299.851 136.055 236.318 99.3223 236.78 99.6221 c 0
 259.68 114.465 306.834 191.123 338.827 319.099 c 0
 376.051 467.993 403.353 548.293 467.941 609.853 c 0
 482.206 623.448 500.808 638.195 523.162 651.102 c 0
 561.567 673.274 592.66 680.002 607.215 682.541 c 0
 618.219 684.461 629.051 685.59 641.862 685.59 c 0
 672.735 685.59 678.564 663.213 654.873 635.642 c 0
 631.183 608.07 586.898 585.693 556.024 585.693 c 0
 551.641 585.693 549.274 585.299 548.612 585.183 c 0
 547.197 584.937 552.774 586.315 558.617 589.688 c 1
571.985 100.3 m 2
 593.51 100.3 616.644 101.118 629.153 104.206 c 0
 631.104 104.688 626.513 103.853 616.989 98.3535 c 1
 616.998 98.3584 589.902 68.6826 592.479 78.9883 c 0
 598.539 103.231 634.688 133.613 673.171 146.806 c 0
 711.652 159.998 737.965 151.028 731.905 126.785 c 0
 723.206 91.9863 691.881 59.626 652.481 36.8789 c 0
 627.594 22.5098 603.768 14.4424 585.132 9.84277 c 0
 542.357 -0.71582 495.302 0.298828 486.056 0.298828 c 2
 27.6006 0.299805 l 2
 -3.30371 0.299805 -9.1377 22.7002 14.5791 50.2998 c 0
 38.2949 77.9004 82.626 100.301 113.53 100.301 c 2
 571.985 100.3 l 2
EndSplineSet
Fore
403.164 585.642 m 2
 375.747 585.642 239.473 587.082 182.694 571.253 c 1
 175.628 547.252 140.125 517.776 102.382 504.837 c 0
 63.9003 491.645 37.5879 500.614 43.6484 524.857 c 0
 53.7217 565.15 90.7168 602.872 136.771 629.462 c 0
 149.556 636.843 161.534 642.414 167.741 645.158 c 0
 252.05 682.43 351.643 685.642 489.093 685.642 c 2
 794.723 685.642 l 2
 825.627 685.642 831.46 663.242 807.744 635.642 c 0
 784.027 608.042 739.697 585.642 708.793 585.642 c 2
 557.061 585.642 l 1
 517.346 536.04 485.16 395.046 478.109 366.843 c 0
 443.512 228.464 396.55 149.34 350.73 100.3 c 1
 571.985 100.3 l 2
 583.029 100.3 594.496 100.515 604.734 101.142 c 1
 619.781 119.461 645.889 137.453 673.171 146.806 c 0
 711.652 159.998 737.965 151.028 731.905 126.785 c 0
 723.206 91.9863 691.881 59.6265 652.481 36.8789 c 0
 627.594 22.5101 603.768 14.4426 585.132 9.84277 c 0
 542.357 -0.715303 495.302 0.298828 486.056 0.298828 c 2
 27.6006 0.298828 l 2
 -3.30371 0.298828 -9.13717 22.6997 14.5791 50.2998 c 0
 38.2954 77.8999 82.626 100.3 113.53 100.3 c 2
 237.857 100.3 l 1
 260.899 115.836 307.035 191.935 338.827 319.099 c 0
 371.37 449.27 396.33 527.013 445.251 585.642 c 1
 403.164 585.642 l 2
EndSplineSet
EndChar
StartChar: J
Encoding: 74 74 11
Width: 880
Flags: HMW
Back
657.135 585.693 m 2
 582.183 585.693 527.994 565.286 501.57 550.03 c 0
 482.429 538.979 473.375 528.858 468.627 523.512 c 0
 456.918 510.327 444.302 490.264 437.618 463.53 c 0
 431.564 439.312 395.451 408.961 357.009 395.784 c 0
 318.567 382.606 292.282 391.567 298.337 415.786 c 0
 307.758 453.469 327.198 490.256 359.007 526.076 c 0
 397.251 569.143 442.655 597.898 466.114 611.443 c 0
 562.015 666.811 665.084 685.59 742.973 685.59 c 2
 1003.17 685.59 l 2
 1034.04 685.59 1039.87 663.213 1016.18 635.642 c 0
 992.49 608.07 948.206 585.693 917.333 585.693 c 2
 657.135 585.693 l 2
216.921 54.3965 m 0
 242.046 10.8779 308.354 -12.8193 382.065 -12.8193 c 0
 404.852 -12.8193 444.146 -8.88477 479.733 9.94922 c 0
 479.739 9.95215 445.26 -10.0781 484.824 12.7637 c 0
 497.081 19.8398 506.22 27.5918 510.559 31.5322 c 0
 528.593 47.9082 549.564 75.5811 558.997 113.314 c 0
 620.466 359.19 667.448 478.713 749.997 567.062 c 0
 773.203 591.896 803.205 617.764 841.021 639.597 c 0
 887.357 666.348 932.528 679.372 970.018 683.688 c 0
 983.86 685.28 995.525 685.59 1003.17 685.59 c 0
 1034.04 685.59 1039.87 663.213 1016.18 635.642 c 0
 992.49 608.07 948.206 585.693 917.333 585.693 c 0
 909.688 585.693 904.323 585.193 900.882 584.797 c 0
 886.416 583.132 879.465 579.909 876.478 578.184 c 0
 873.628 576.539 866.587 571.854 855.863 560.377 c 0
 783.643 483.083 738.039 320.099 698.279 161.059 c 0
 678.995 83.9209 624.243 30.8428 601.761 10.4287 c 0
 577.895 -11.2432 549.916 -31.5391 520.28 -48.6484 c 0
 510.389 -54.3594 507.221 -55.9492 503.927 -57.6924 c 0
 431.835 -95.8438 359.124 -112.715 296.229 -112.715 c 0
 203.569 -112.715 115.156 -84.502 80.4531 -24.3926 c 0
 65.3936 1.69141 60.2031 34.1611 69.9951 73.3271 c 0
 76.0498 97.5449 112.163 127.896 150.604 141.073 c 0
 189.046 154.25 215.331 145.289 209.276 121.07 c 0
 202.93 95.6807 205.98 73.3477 216.921 54.3965 c 0
EndSplineSet
Fore
210 128 m 0
 210 121 206 112 206 96 c 0
 206 30 278 -13 382 -13 c 0
 465.128 -13 537.747 30.1145 559 113 c 0
 603.276 285.678 649 472 769 586 c 1
 657 586 l 2
 611 586 514 575 469 524 c 0
 457 510 444 490 438 464 c 0
 430 433 371 390 325 390 c 0
 308 390 297 397 297 409 c 0
 297 411 298 413 298 416 c 1
 323 513 409.054 577.907 466 611 c 0
 562.092 666.842 665 686 743 686 c 2
 1003 686 l 2
 1021 686 1031 678 1031 666 c 0
 1031 634 965 586 917 586 c 0
 882 586 872 578 856 560 c 0
 784 483 738 320 698 161 c 0
 673.858 65.0356 594 -6 520 -49 c 2
 504 -58 l 2
 432 -96 359 -113 296 -113 c 0
 182 -113 65 -68 65 35 c 0
 65 47 67 60 70 73 c 0
 78 103 136 147 182 147 c 0
 200 147 210 140 210 128 c 0
EndSplineSet
EndChar
StartChar: K
Encoding: 75 75 12
Width: 978
Flags: HMW
Back
181.943 380.811 m 0
 201.229 457.953 207.28 524.347 207.968 576.326 c 1
 168.939 556.636 l 2
 130.35 537.166 94.9512 537.209 89.9248 556.73 c 0
 84.8984 576.253 112.138 607.898 150.728 627.368 c 2
 268.678 686.877 l 2
 289.526 697.396 307.696 702.19 323.66 701.386 c 0
 339.624 700.582 347.755 694.461 348.263 682.866 c 0
 351.868 600.524 342.833 514.986 321.226 428.555 c 0
 289.677 302.359 246.081 176.248 190.885 51.8145 c 0
 179.419 25.9658 139.932 -2.7998 102.743 -12.3945 c 0
 65.5547 -21.9902 44.6787 -8.7998 56.1436 17.0479 c 0
 109.183 136.618 151.359 258.473 181.943 380.811 c 0
787.464 606.854 m 0
 786.126 609.172 780.083 611.222 777.731 611.858 c 0
 767.995 614.497 756.156 615.113 750.099 614.728 c 0
 715.269 612.512 627.314 577.893 540.453 527.743 c 0
 489.887 498.549 459.317 475.002 444.117 459.809 c 0
 441.229 456.922 434.338 450.542 433.76 446.941 c 0
 431.479 432.733 443.575 380.681 494.684 292.16 c 0
 566.492 167.785 650.322 82.1797 694.487 71.8359 c 0
 698.551 70.8838 687.325 71.2139 698.292 71.2139 c 0
 743.794 71.2139 777.117 77.5156 796.312 84.9111 c 0
 800.763 86.626 804.003 88.2324 806.142 89.4668 c 0
 811.106 92.334 815.884 96.4912 819.182 109.681 c 0
 824.963 132.804 854.3 156.784 884.666 163.208 c 0
 915.033 169.631 934.986 156.077 929.206 132.954 c 0
 924.631 114.657 908.419 66.3027 841.741 27.8066 c 0
 828.767 20.3154 815.703 14.2949 802.94 9.37793 c 0
 747.812 -11.8623 689.46 -15.7393 648.662 -15.7393 c 0
 638.877 -15.7393 630.572 -14.5381 622.915 -12.7451 c 0
 531.378 8.69336 432.037 155.43 388.491 230.851 c 0
 333.205 326.608 315.941 379.777 323.735 423.668 c 0
 327.954 447.423 349.206 472.024 367.33 490.139 c 0
 411.386 534.172 475.628 572.53 504.853 589.403 c 0
 572.074 628.214 699.82 695.354 799.729 701.682 c 0
 817.654 702.816 835.099 700.336 851.892 695.786 c 0
 867.851 691.462 884.694 683.685 893.655 668.164 c 0
 900.831 655.735 900.713 641.655 897.545 628.98 c 0
 891.765 605.857 862.428 581.877 832.061 575.453 c 0
 801.693 569.029 781.739 582.583 787.521 605.706 c 0
 787.602 606.031 787.76 606.343 787.464 606.854 c 0
EndSplineSet
Fore
320 702 m 0
 348 702 349 692 349 647 c 0
 349 475.051 281.197 257.727 191 52 c 0
 177.872 22.0562 122 -16 81 -16 c 0
 63 -16 53 -8 53 4 c 0
 53 21 205 326 208 576 c 1
 169 557 l 2
 150 547 131 542 117 542 c 0
 103 542 89 547 89 562 c 0
 89 581 115.122 608.757 151 627 c 2
 269 687 l 2
 289 697 307 702 320 702 c 0
649 -16 m 0
 512.461 -16 322 306.644 322 401 c 0
 322 436 339 462 367 490 c 0
 442 565 681 702 809 702 c 0
 847 702 900 687 900 644 c 0
 900 601 849 574 818 574 c 0
 799 574 787 583 787 598 c 0
 787 603 788 605 788 606 c 0
 788 612 761 615 752 615 c 0
 685 615 433 479 433 443 c 0
 433 425 447.208 374.121 495 292 c 0
 576.355 152.206 667 71 698 71 c 0
 752 71 788 79 806 89 c 0
 811 92 816 96 819 110 c 0
 826 138 867 165 899 165 c 0
 918 165 930 155 930 141 c 0
 930 109 876 -16 649 -16 c 0
EndSplineSet
EndChar
StartChar: L
Encoding: 76 76 13
Width: 886
Flags: HMW
Back
730.857 29.7344 m 0
 717.229 21.8652 702.106 14.2246 683.498 6.90137 c 0
 672.007 2.37891 625.514 -15.6904 570.269 -15.6904 c 0
 435.03 -15.6904 312.238 19.8232 187.403 19.8232 c 0
 181.29 19.8232 168.242 18.7676 162.365 15.374 c 0
 161.36 14.7939 161.727 14.9893 161.227 14.6445 c 0
 123.201 -11.626 78.2383 -23.0176 60.8623 -10.7832 c 0
 43.4863 1.45215 60.2461 32.7031 98.2705 58.9736 c 0
 109.198 66.5225 118.022 71.9512 126.78 77.0078 c 0
 154.763 93.1631 217.219 124.823 285.719 124.823 c 0
 420.956 124.822 543.747 89.3096 668.581 89.3086 c 0
 679.038 89.3086 693.07 91.002 699.59 93.5684 c 0
 699.599 93.5713 695.207 91.3301 695.272 91.3682 c 0
 695.281 91.373 682.227 80.5195 683.499 82.3896 c 0
 684.253 83.4971 686.544 87.4434 688.053 93.4805 c 0
 694.195 118.052 732.743 150.464 774.097 165.83 c 0
 815.45 181.195 844.027 173.725 837.885 149.154 c 0
 833.965 133.475 827.207 119.691 818.044 106.226 c 0
 799.149 78.46 770.262 52.4844 730.857 29.7344 c 0
598.681 565.158 m 0
 585.581 587.846 559.823 596.798 539.874 596.798 c 0
 534.784 596.798 513.023 596.588 499.538 588.802 c 0
 490.954 583.847 486.916 579.936 480.314 573.779 c 0
 422.579 519.935 367.517 409.631 336.673 286.252 c 0
 312.719 190.438 285.584 104.03 193.045 34.9873 c 0
 179.482 24.8682 167.914 17.54 156.527 10.9658 c 0
 150.846 7.68555 145.028 4.47754 137.274 0.579102 c 0
 95.8057 -20.2676 58.7783 -20.9561 54.625 -0.957031 c 0
 50.4707 19.042 80.7559 52.1934 122.225 73.04 c 0
 122.226 73.041 121.054 72.4062 121.054 72.4062 c 0
 121.306 72.5518 119.086 71.1357 119.097 71.1436 c 0
 142.175 88.3623 166.799 148.709 187.311 230.754 c 0
 211.829 328.829 266.638 482.454 378.359 586.646 c 0
 401.833 608.537 430.407 630.811 464.064 650.242 c 0
 525.082 685.471 584.555 701.468 637.88 701.468 c 0
 669.052 701.468 720.733 692.717 745.455 649.897 c 0
 756.759 630.32 760.849 605.945 753.488 576.505 c 0
 747.365 552.012 708.938 519.701 667.715 504.383 c 0
 626.491 489.065 598.003 496.513 604.127 521.007 c 0
 608.019 536.574 606.062 552.371 598.681 565.158 c 0
EndSplineSet
Fore
603 515 m 0
 603 521 606 524 606 537 c 0
 606 573 574 597 540 597 c 0
 504 597 493 586 480 574 c 0
 423 520 368 410 337 286 c 0
 328 250 315 187 276 125 c 1
 286 125 l 2
 421 125 544 89 669 89 c 0
 674 89 681 90 686 91 c 1
 709 148 784 174 812 174 c 0
 829 174 839 167 839 155 c 0
 839 153 838 151 838 149 c 1
 816 62 683 -16 570 -16 c 0
 435 -16 312 20 187 20 c 0
 179 20 172 19 167 17 c 1
 159 12 115 -16 81 -16 c 0
 59 -16 54 -5 54 2 c 0
 54 17 67 41 124 75 c 1
 146 97 167.765 154.058 187 231 c 0
 269 559 474 701 638 701 c 0
 702 701 757 666 757 605 c 0
 757 596 756 587 753 577 c 0
 745 544 677 496 630 496 c 0
 613 496 603 503 603 515 c 0
EndSplineSet
EndChar
StartChar: M
Encoding: 77 77 14
Width: 1538
Flags: HMW
Back
700.894 289.406 m 0
 707.601 275.749 714.733 262.374 722.283 249.297 c 0
 743.035 213.351 766.936 179.651 793.766 148.483 c 1
 740.767 109.854 l 1
 719.413 34.3145 l 1
 709.105 34.3057 700.658 36.8525 695.538 42.1904 c 0
 656.834 82.54 623.265 127.314 595.2 175.925 c 0
 587.26 189.679 579.761 203.738 572.712 218.093 c 0
 531.461 302.095 494.115 388.469 460.755 477.021 c 1
 447.517 422.382 430.957 367.572 411.174 313.218 c 0
 401.372 286.289 390.797 259.487 379.482 232.888 c 0
 348.461 159.962 307.024 61.083 252.316 -0.0898438 c 0
 237.501 -16.6562 221.506 -30.4707 205.454 -39.3838 c 0
 187.691 -49.2461 171.988 -52.1865 158.173 -51.2832 c 0
 140.146 -50.1045 122.962 -46.5723 106.929 -40.7363 c 0
 100.123 -38.2588 93.5244 -35.3652 87.1592 -32.0527 c 0
 81.1016 -28.9004 68.9209 -22.2725 58.6172 -11.8604 c 0
 43.6289 3.28516 46.4727 47.0889 64.9658 85.915 c 0
 83.458 124.742 110.631 143.961 125.619 128.815 c 0
 132.668 121.692 143.186 116.341 145.265 115.259 c 0
 150.334 112.62 155.646 110.288 161.167 108.278 c 0
 174.173 103.545 188.34 100.613 203.223 99.6396 c 0
 217.038 98.7363 222.545 104.033 222.744 104.145 c 0
 228.206 107.188 232.995 111.297 238.243 117.165 c 0
 258.729 140.073 280.015 182.366 319.254 274.612 c 0
 328.192 295.626 336.476 316.628 344.118 337.626 c 0
 379.003 433.473 400.938 529.577 409.484 627.001 c 1
 409.817 626.854 l 1
 409.795 645.844 432.564 671.968 464.761 688.415 c 0
 500.676 706.763 534.787 706.156 540.902 687.062 c 0
 584.971 549.457 638.397 416.666 700.894 289.406 c 0
1336.96 218.967 m 0
 1335.84 176.551 1339.72 135.262 1348.5 95.9482 c 0
 1349.22 92.7637 1350.34 89.9004 1351.79 87.3965 c 0
 1355.77 80.5039 1362.78 76.2246 1368.53 74.9951 c 1
 1405.8 93.7998 l 2
 1444.39 113.269 1479.79 113.226 1484.82 93.7031 c 0
 1489.84 74.1807 1462.6 42.5361 1424.01 23.0664 c 2
 1376.44 -0.935547 l 2
 1338.87 -19.8936 1305.81 -25.7471 1282.94 -25.2363 c 0
 1244.64 -24.3799 1224.73 -7.68262 1215.32 8.60742 c 0
 1212.22 13.9873 1209.89 19.9561 1208.42 26.5088 c 0
 1198.97 68.8252 1194.77 113.339 1195.98 159.348 c 0
 1199.17 280.176 1210.45 402.613 1229.76 525.946 c 1
 1341.54 626.257 l 1
 1384.2 663.224 l 1
 1384.18 661.819 1384.03 660.347 1383.75 658.805 c 0
 1356.44 510.877 1340.79 363.81 1336.96 218.967 c 0
938.95 330.551 m 0
 1075.08 447.56 1208.66 567.447 1339.55 690.066 c 0
 1363.32 712.343 1383.51 701.836 1384.61 666.613 c 0
 1385.71 631.39 1367.3 584.724 1343.53 562.447 c 0
 1211.13 438.409 1076.09 317.219 938.556 199.002 c 0
 873.371 142.971 805.869 90.1621 736.368 40.7793 c 0
 712.688 23.9541 695.441 41.2441 697.869 79.373 c 0
 700.298 117.502 721.486 162.102 745.166 178.927 c 0
 812.072 226.466 876.79 277.12 938.95 330.551 c 0
EndSplineSet
Fore
1458 108 m 0
 1472 108 1485 103 1485 89 c 0
 1485 69 1460 41 1424 23 c 2
 1376 -1 l 2
 1345 -17 1313 -25 1285 -25 c 0
 1247 -25 1216 -9 1208 27 c 0
 1200 64 1196 103 1196 144 c 0
 1196 205 1203 329 1219 451 c 1
 939 199 l 2
 873 143 806 90 736 41 c 0
 730 36 724 34 719 34 c 0
 709 34 701 37 696 42 c 0
 632 109 565 199 461 477 c 1
 423 321 330 86 252 -0 c 0
 237 -18 207 -51 157 -51 c 0
 118 -51 76 -29 59 -12 c 0
 51 -4 48 7 48 20 c 0
 48 66 86 134 113 134 c 0
 118 134 122 133 126 129 c 0
 140 114 176 100 202 100 c 0
 210 100 217 101 223 104 c 0
 263 127 326 287 344 338 c 0
 379 433 401.637 530 409.637 627 c 0
 409.637 662 476 702 515 702 c 0
 528 702 538 698 541 687 c 0
 566 610 666 320 761 190 c 1
 822 234 882 281 939 331 c 2
 1340 690 l 2
 1348 698 1356 702 1363 702 c 0
 1372 702 1385 694 1385 664 c 0
 1385 650 1382 635 1377 620 c 1
 1349 457 1337 290 1337 207 c 0
 1337 153 1346 98 1352 87 c 0
 1356 81 1363 76 1369 75 c 1
 1406 94 l 2
 1425 104 1444 108 1458 108 c 0
EndSplineSet
EndChar
StartChar: N
Encoding: 78 78 15
Width: 1052
Flags: HMW
Back
77.0576 115.036 m 0
 81.9004 112.575 86.9531 110.384 92.1885 108.479 c 0
 105.521 103.626 120.042 100.628 135.295 99.6406 c 0
 161.042 97.9736 172.958 109.729 189.979 149.705 c 0
 195.086 161.702 200.649 176.372 206.528 192.522 c 0
 208.756 198.644 211.514 206.305 212.066 207.837 c 0
 269.503 367.264 293.295 510.626 300.214 627.133 c 1
 300.341 626.854 l 1
 381.153 626.854 l 1
 368.584 499.123 338.737 348.869 279.496 184.461 c 0
 278.906 182.826 275.963 174.648 273.585 168.115 c 0
 266.893 149.729 259.315 129.376 250.163 107.878 c 0
 217.151 30.3438 164.375 -56.0791 90.2676 -51.2842 c 0
 71.8643 -50.0938 54.3184 -46.4932 37.9512 -40.5361 c 0
 31.5234 -38.1963 25.2783 -35.4922 19.2344 -32.4209 c 0
 8.07617 -26.75 -1.89746 -20.2842 -10.2549 -11.9883 c 0
 -25.3301 2.97461 -22.6133 46.6875 -4.19141 85.585 c 0
 14.2305 124.482 41.416 143.906 56.4912 128.943 c 0
 63.8789 121.61 74.8828 116.142 77.0576 115.036 c 0
991.521 626.549 m 1
 991.521 626.549 987.958 618.379 975.788 584.94 c 0
 963.567 551.366 950.331 508.756 939.356 473.148 c 0
 893.111 323.109 851.968 172.834 815.984 22.5127 c 1
 813.691 26.9688 l 1
 741.847 26.9688 l 1
 778.469 178.333 820.116 329.751 866.708 480.91 c 0
 877.797 516.887 892.173 563.854 908.731 609.349 c 0
 945.03 709.075 963.3 722.869 978.834 745.336 c 0
 1048.96 821.97 1137.51 836.996 1194.34 836.996 c 0
 1215.03 836.996 1222.25 803.173 1210.47 761.496 c 0
 1198.69 719.82 1172.34 685.996 1151.66 685.996 c 0
 1078.76 685.996 1021.34 659.133 991.521 626.549 c 1
651.946 248.975 m 0
 655.044 243.609 658.152 238.251 661.272 232.9 c 0
 702.377 162.422 751.699 97.8975 808.471 40.2754 c 0
 822.646 25.8877 806.912 -3.83203 773.351 -26.0645 c 0
 739.789 -48.2959 701.047 -54.6631 686.872 -40.2754 c 0
 627.905 19.5752 576.814 86.4424 534.267 159.396 c 0
 531.12 164.791 527.986 170.193 524.863 175.603 c 0
 442.537 318.202 368.147 466.129 301.923 618.922 c 0
 294.048 637.092 316.526 667.473 352.097 686.738 c 0
 387.668 706.003 422.928 706.893 430.803 688.724 c 0
 496.498 537.151 570.291 390.413 651.946 248.975 c 0
EndSplineSet
Fore
300 627 m 0
 300 657 358 702 403 702 c 0
 417 702 427 697 431 689 c 0
 496 537 570 390 652 249 c 2
 661 233 l 2
 690 184 722 138 759 95 c 1
 808 288 872.283 507.897 909 609 c 0
 945.28 708.898 963 723 979 745 c 0
 1049 822 1138 837 1194 837 c 0
 1208 837 1216 822 1216 799 c 0
 1216 747 1179 686 1152 686 c 0
 1079 686 1021 659 992 627 c 1
 976 585 l 2
 936 475 864 221 816 23 c 1
 814 27 l 1
 814 -4 756 -48 711 -48 c 0
 700 -48 692 -45 687 -40 c 0
 628 20 577 86 534 159 c 2
 525 176 l 2
 466 277 412 381 362 487 c 1
 345 394 318 292 279 184 c 2
 274 168 l 2
 251 106 194 -51 96 -51 c 0
 70 -51 19 -41 -10 -12 c 0
 -18 -5 -21 7 -21 20 c 0
 -21 66 16 134 44 134 c 0
 57 134 79 99 140 99 c 0
 167 99 179 117 207 193 c 2
 212 208 l 2
 270 367 293 511 300 627 c 0
EndSplineSet
EndChar
StartChar: O
Encoding: 79 79 16
Width: 1009
Flags: HMW
Back
360.807 586.629 m 0
 287.969 544.575 241.399 466.33 225.103 401.142 c 0
 207.2 329.534 216.59 263.114 247.17 210.147 c 0
 293.804 129.373 385.477 84.3789 487.629 84.3789 c 0
 542.07 84.3789 617.105 96.3291 685.294 135.697 c 0
 759.62 178.609 808.689 245.203 827.163 319.099 c 0
 844.942 390.213 836.673 458.596 807.161 509.713 c 0
 771.864 570.85 711.825 601.563 645.259 601.563 c 0
 638.574 601.563 632.768 601.04 629.464 600.649 c 0
 608.699 598.193 595.797 591.587 588.468 587.355 c 0
 577.881 581.243 578.741 581.151 576.475 579.497 c 0
 553.575 562.778 520.583 528.824 493.808 475.788 c 0
 480.537 449.502 440.076 421.416 403.493 413.096 c 0
 366.91 404.775 347.989 419.357 361.26 445.644 c 0
 390.864 504.285 438.424 568.462 510.298 620.935 c 0
 523.7 630.719 538.014 640.108 553.012 648.768 c 0
 605.313 678.964 656.1 694.515 698.071 699.478 c 0
 711.863 701.109 722.911 701.459 731.096 701.459 c 0
 770.881 701.46 882.403 694.551 943.629 588.502 c 0
 984.303 518.052 983.714 435.915 966.445 366.843 c 0
 937.265 250.118 845.131 146.096 720.749 74.2852 c 0
 615.156 13.3213 501.9 -15.5176 401.792 -15.5176 c 0
 263.481 -15.5176 160.615 44.9033 110.701 131.358 c 0
 83.8594 177.85 60.6025 252.526 85.8203 353.397 c 0
 111.383 455.647 191.187 570.582 325.351 648.041 c 0
 356.384 665.958 393.282 683.471 435.167 696.564 c 0
 473.243 708.468 497.62 697.944 489.579 673.075 c 0
 481.539 648.206 444.111 618.361 406.035 606.458 c 0
 393.102 602.414 377.81 596.445 360.807 586.629 c 0
EndSplineSet
Fore
978 454 m 0
 978 190 670 -16 402 -16 c 0
 215 -16 75 99 75 269 c 0
 75 441 221 630 435 697 c 0
 446 700 455 701 463 701 c 0
 481 701 491 694 491 682 c 0
 491 656 448 620 406 606 c 0
 296 572 216 450 216 330 c 0
 216 183 337 84 488 84 c 0
 675 84 836 208 836 393 c 0
 836 508 766 602 645 602 c 0
 604 602 582 584 576 579 c 0
 554 563 521.327 528.832 494 476 c 0
 479 447 426 411 385 411 c 0
 367 411 357 418 357 430 c 0
 357 435 358 440 361 446 c 0
 431 585 583 701 731 701 c 0
 888 701 978 593 978 454 c 0
EndSplineSet
EndChar
StartChar: P
Encoding: 80 80 17
Width: 921
Flags: HMW
Back
303.706 286.015 m 0
 330.547 393.375 345.697 500.681 348.79 605.901 c 0
 349.44 628.053 381.548 659.354 420.459 675.771 c 0
 459.369 692.188 490.42 687.533 489.769 665.382 c 0
 486.573 556.646 470.924 445.499 442.988 333.758 c 0
 415.052 222.017 375.003 110.344 323.312 0.507812 c 0
 311.053 -25.5391 271.128 -54.0166 234.193 -63.0566 c 0
 197.259 -72.0967 177.232 -58.2939 189.49 -32.2471 c 0
 238.492 71.875 276.865 178.654 303.706 286.015 c 0
191.57 558.611 m 0
 182.372 553.301 175.947 537.668 175.384 536.357 c 0
 174.523 534.353 172.245 529.043 170.149 520.661 c 0
 164.095 496.442 127.981 466.092 89.54 452.915 c 0
 51.0977 439.737 24.8125 448.699 30.8672 472.918 c 0
 32.9629 481.3 35.8418 490.43 40.1953 500.565 c 0
 66.0088 560.66 121.054 599.781 156.114 620.023 c 0
 178.179 632.763 203.841 644.704 233.919 654.753 c 0
 282.289 670.914 350.865 685.59 462.198 685.59 c 0
 493.071 685.59 498.9 663.213 475.209 635.642 c 0
 451.518 608.07 407.233 585.693 376.36 585.693 c 0
 300.754 585.693 245.351 578.145 209.893 566.298 c 0
 199.896 562.958 193.94 559.979 191.57 558.611 c 0
736.122 351.952 m 0
 755.548 363.167 764.73 373.381 769.5 378.783 c 0
 781.24 392.08 794.162 412.802 801.204 440.971 c 0
 808.26 469.191 805.337 491.519 794.643 510.042 c 0
 774.591 544.772 715.761 585.693 524.642 585.693 c 2
 376.36 585.693 l 2
 345.487 585.693 339.658 608.07 363.35 635.642 c 0
 387.04 663.213 431.324 685.59 462.198 685.59 c 2
 610.479 685.59 l 2
 724.927 685.59 882.289 673.395 931.11 588.832 c 0
 946.205 562.687 950.663 529.422 940.486 488.714 c 0
 930.828 450.083 911.546 412.944 879.523 376.675 c 0
 841.217 333.287 795.229 304.194 771.578 290.539 c 0
 654.411 222.894 522.467 206.137 429.753 206.137 c 0
 398.879 206.137 393.05 228.514 416.741 256.085 c 0
 440.433 283.656 484.717 306.033 515.59 306.033 c 0
 621.211 306.033 697.912 329.892 736.122 351.952 c 0
EndSplineSet
Fore
946 531 m 0
 946 385 748 206 430 206 c 0
 420 206 412 208 408 213 c 1
 385 143 357 72 323 1 c 0
 306 -36 247 -66 213 -66 c 0
 196 -66 186 -59 186 -46 c 0
 186 -25 332 227 348 585 c 1
 249 583 204.031 565.946 192 559 c 0
 185.018 554.969 175 541 170 521 c 0
 163 491 104 447 58 447 c 0
 41 447 30 454 30 466 c 0
 30 468 30 471 31 473 c 1
 46 533 127 686 462 686 c 2
 610 686 l 2
 729 686 946 673 946 531 c 0
805 469 m 0
 805 539 731 586 525 586 c 2
 485 586 l 1
 477 483 457 375 424 264 c 1
 449 288 488 306 516 306 c 0
 555 306 711 312 770 379 c 0
 789 401 805 436 805 469 c 0
EndSplineSet
EndChar
StartChar: Q
Encoding: 81 81 18
Width: 1056
Flags: HMW
Back
564.962 94.5605 m 0
 602.133 106.949 637.311 122.614 667.927 140.29 c 0
 781.273 205.731 808.063 285.059 816.574 319.1 c 0
 832.345 382.183 824.052 440.699 796.987 487.577 c 0
 754.642 560.925 670.155 601.562 577.429 601.562 c 0
 491.384 601.562 428.208 573.528 397.194 555.622 c 0
 303.674 501.629 282.8 418.641 278.466 401.304 c 0
 267.784 358.575 273.389 318.776 292.023 286.501 c 0
 330.796 219.344 408.781 203.135 455.879 203.135 c 0
 506.997 203.135 558.404 208.783 608.786 219.457 c 0
 645.037 227.137 662.971 211.879 648.817 185.398 c 0
 634.663 158.918 593.755 131.194 557.505 123.514 c 0
 493.079 109.865 430.341 103.239 370.043 103.238 c 0
 267.601 103.238 191.361 145.692 155.555 207.711 c 0
 132.729 247.248 124.893 296.395 139.184 353.56 c 0
 165.376 458.33 249.337 552.141 361.738 617.035 c 0
 414.279 647.369 525.875 701.459 663.266 701.459 c 0
 791.762 701.459 887.457 646.041 933.456 566.367 c 0
 964.773 512.121 975.24 444.38 955.856 366.844 c 0
 927.229 252.332 829.001 151.403 703.383 78.8779 c 0
 649.962 48.0361 594.555 23.9756 540.737 6.03906 c 0
 393.541 -43.0205 266.134 -49.9482 190.987 -49.9482 c 0
 160.114 -49.9482 154.285 -27.5713 177.976 0 c 0
 201.667 27.5713 245.951 49.9482 276.824 49.9482 c 0
 332.898 49.9482 443.514 54.083 564.962 94.5605 c 0
819.138 -47.1973 m 0
 824.49 -47.1973 832.453 -46.9736 842.155 -45.5527 c 0
 852.757 -44.001 863.584 -40.9824 866.988 -39.0166 c 1
 865.971 -39.6045 864.413 -40.9023 864.389 -40.9287 c 1
 864.73 -40.5596 869.545 -34.9131 872.299 -23.8975 c 0
 878.36 0.345703 914.511 30.7275 952.993 43.9199 c 0
 991.475 57.1113 1017.79 48.1416 1011.73 23.8975 c 0
 1006.12 1.45605 993.898 -22.1953 971.089 -46.8389 c 0
 960.972 -57.7686 939.834 -78.9248 902.48 -100.492 c 0
 856.959 -126.773 814.619 -138.528 778.338 -143.84 c 0
 762.597 -146.145 747.584 -147.198 733.208 -147.198 c 0
 529.827 -147.198 374.767 -50.001 190.941 -50 c 0
 160.037 -50 154.203 -27.5996 177.92 0.000976562 c 0
 201.637 27.6006 245.967 50.001 276.872 50.001 c 0
 480.252 50 635.312 -47.1982 819.138 -47.1973 c 0
EndSplineSet
Fore
132 298 m 0
 132 490 390 701 663 701 c 0
 836 701 966 598 966 443 c 0
 966 203 695 57 540 6 c 1
 632 -20 722 -47 819 -47 c 0
 837 -47 856 -44 865 -40 c 1
 871 -31 879 18 953 44 c 0
 965 48 976 50 985 50 c 0
 1002 50 1013 43 1013 30 c 0
 1013 28 1012 26 1012 24 c 1
 988 -73 851 -147 733 -147 c 0
 530 -147 375 -50 191 -50 c 0
 173 -50 163 -42 163 -30 c 0
 163 3 231 50 277 50 c 0
 283 50 l 0
 569 52 825 171 825 379 c 0
 825 513 716 602 577 602 c 0
 476 602 317 557 278 401 c 0
 275 387 273 372 273 359 c 0
 273 266 355 203 456 203 c 0
 555 203 604 221 626 221 c 0
 644 221 654 214 654 202 c 0
 654 171 599 132 558 124 c 0
 493 110 430 103 370 103 c 0
 230 103 132 182 132 298 c 0
EndSplineSet
EndChar
StartChar: R
Encoding: 82 82 19
Width: 1123
Flags: HMW
Back
309.993 311.164 m 0
 334.713 410.04 347.774 508.88 348.781 605.468 c 0
 349.01 627.44 380.779 658.79 419.694 675.446 c 0
 458.609 692.102 490.007 687.787 489.777 665.815 c 0
 488.731 565.48 475.181 462.528 449.275 358.908 c 0
 423.37 255.288 385.298 151.72 335.541 50.0898 c 0
 322.723 23.9082 282.499 -4.35547 245.755 -12.999 c 0
 209.011 -21.6426 189.592 -7.40918 202.41 18.7725 c 0
 249.064 114.065 285.274 212.289 309.993 311.164 c 0
191.57 558.611 m 0
 182.372 553.301 175.947 537.668 175.384 536.357 c 0
 174.523 534.353 172.245 529.043 170.149 520.661 c 0
 164.095 496.442 127.981 466.092 89.54 452.915 c 0
 51.0977 439.737 24.8125 448.699 30.8672 472.918 c 0
 32.9629 481.3 35.8418 490.43 40.1953 500.565 c 0
 66.0088 560.66 121.054 599.781 156.114 620.023 c 0
 178.179 632.763 203.841 644.704 233.919 654.753 c 0
 282.289 670.914 350.865 685.59 462.198 685.59 c 0
 493.071 685.59 498.9 663.213 475.209 635.642 c 0
 451.518 608.07 407.233 585.693 376.36 585.693 c 0
 300.754 585.693 245.351 578.145 209.893 566.298 c 0
 199.896 562.958 193.94 559.979 191.57 558.611 c 0
753.771 409.403 m 0
 763.174 414.832 774.654 422.95 785.281 441.875 c 0
 789.784 449.894 794.027 459.963 796.995 471.834 c 0
 803.572 498.142 800.631 516.712 792.679 530.486 c 0
 763.603 580.848 661.2 585.693 496.945 585.693 c 2
 376.36 585.693 l 2
 345.487 585.693 339.658 608.07 363.35 635.642 c 0
 387.041 663.213 431.325 685.59 462.198 685.59 c 2
 582.783 685.59 l 2
 705.922 685.59 882.518 690.041 929.146 609.275 c 0
 941.343 588.15 946.355 559.89 936.277 519.578 c 0
 931.88 501.986 925.108 484.757 915.441 467.543 c 0
 891.531 424.963 847.799 381.807 789.228 347.991 c 0
 776.097 340.41 777.084 341.206 774.021 339.586 c 0
 761.11 332.759 761.849 333.355 758.791 331.874 c 0
 746.166 325.757 746.656 326.183 743.62 324.835 c 0
 653.019 284.615 559.425 274.725 491.552 274.725 c 0
 460.679 274.725 454.85 297.102 478.54 324.673 c 0
 502.231 352.244 546.516 374.621 577.389 374.621 c 0
 651.153 374.621 708.199 388.383 740.459 402.703 c 0
 742.307 403.523 738.979 401.881 745.491 405.036 c 0
 750.807 407.611 737.004 400.445 749.914 407.273 c 0
 750.215 407.433 701.247 379.078 753.771 409.403 c 0
883.433 84.3789 m 0
 931.543 84.3789 966.055 100.774 983.321 110.743 c 0
 989.654 114.399 995.986 118.512 1002.52 123.311 c 0
 1036.76 148.472 1079.56 159.742 1098.04 148.469 c 0
 1116.53 137.194 1103.74 107.624 1069.5 82.4629 c 0
 1053.35 70.6006 1036.32 59.459 1018.78 49.3311 c 0
 982.508 28.3906 896.872 -15.5176 797.596 -15.5176 c 0
 703.027 -15.5176 785.904 -14.9912 785.819 -14.9834 c 0
 762.977 -12.875 785.342 -15.3848 775.291 -13.5381 c 0
 753.22 -9.48145 774.75 -13.8271 765.749 -11.3584 c 0
 655.188 18.9648 589.937 240.614 502.886 272.256 c 0
 500.789 273.019 506.551 271.431 498.952 273.515 c 0
 492.385 275.316 515.489 273.785 491.552 274.725 c 0
 461.713 275.896 454.85 297.102 478.541 324.673 c 0
 502.231 352.244 547.551 375.793 577.39 374.621 c 0
 601.327 373.681 598.084 373.521 609.236 370.462 c 0
 626.805 365.644 612.491 369.674 618.007 367.669 c 0
 723.053 329.485 791.641 108.734 876.032 85.5889 c 0
 881.15 84.1855 868.735 86.7734 879.379 84.8164 c 0
 882.841 84.1807 880.68 84.5732 881.93 84.457 c 0
 882.369 84.417 788.864 84.3789 883.433 84.3789 c 0
EndSplineSet
Fore
747 405 m 1
 794 431 800 480 800 497 c 0
 800 569 726 586 497 586 c 2
 486 586 l 1
 470 372 402 186 336 50 c 0
 321 21 267 -16 226 -16 c 0
 209 -16 198 -8 198 4 c 0
 198 26 339 256 348 585 c 1
 249 583 204 566 192 559 c 0
 185 555 175 541 170 521 c 0
 163 491 104 447 58 447 c 0
 41 447 30 454 30 466 c 0
 30 468 30 471 31 473 c 1
 46 533 127 686 465 686 c 0
 621 686 l 0
 830 686 942 660 942 558 c 0
 942 513 915 408 759 332 c 2
 744 325 l 2
 727 318 711 311 695 306 c 1
 765 222 821 90 883 84 c 0
 989 84 1011 153 1079 153 c 0
 1101 153 1107 141 1107 133 c 0
 1107 119 1093 100 1070 82 c 0
 1012 41 911 -16 798 -16 c 0
 763 -16 752 -15 752 -15 c 1
 786 -15 l 1
 786 -15 784 -15 778 -14 c 1
 775 -14 l 1
 656 8 587 247 499 274 c 0
 497 275 495 275 492 275 c 0
 473 275 464 282 464 294 c 0
 464 326 530 375 577 375 c 0
 588 375 690 375 750 407 c 1
 747 405 l 1
EndSplineSet
EndChar
StartChar: S
Encoding: 83 83 20
Width: 786
Flags: HMW
Back
648.072 567.681 m 0
 640.58 580.657 629.778 585.699 622.183 587.461 c 0
 581.443 596.909 539.067 601.562 496.227 601.562 c 0
 456.472 601.562 425.195 595.511 405.979 589.524 c 0
 395.239 586.179 388.737 582.962 386.35 581.582 c 0
 379.454 577.602 372.245 565.513 368.474 550.426 c 0
 363.066 528.797 365.788 509.74 375.458 492.99 c 0
 400.55 449.529 467.123 430.499 504.936 422.876 c 0
 567.879 410.186 684.714 383.019 726.182 311.192 c 0
 741.505 284.651 746.921 251.583 736.782 211.03 c 0
 734.491 201.867 730.538 188.7 722.811 172.979 c 0
 699.961 126.493 657.244 85.5098 602.025 53.6299 c 0
 576.64 38.9736 552.607 28.9189 540.426 24.1592 c 0
 444.4 -13.3594 346.828 -15.5176 306.952 -15.5176 c 0
 250.258 -15.5166 160.583 -5.52832 80.583 50.9355 c 0
 68.3154 59.5938 58.6357 70.2295 51.624 82.374 c 0
 29.4287 120.818 40.6172 160.026 53.8682 185.134 c 0
 55.248 187.748 57.1445 192.41 61.7061 198.407 c 0
 79.4971 221.798 83.4229 228.341 104.756 245.293 c 0
 109.785 249.29 126.698 260.8 132.491 264.145 c 0
 162.516 281.479 192.469 290.032 217.624 290.032 c 0
 248.497 290.031 254.326 267.654 230.635 240.083 c 0
 206.943 212.512 162.659 190.136 131.786 190.136 c 1
 132.867 190.136 149.896 192.31 167.947 202.731 c 1
 165.959 201.584 181.302 211.752 181.298 211.749 c 0
 181.297 211.748 189.329 219.453 187.23 216.451 c 0
 183.064 210.49 186.629 215.645 185.492 213.49 c 0
 179.194 201.556 176.561 181.138 188.093 161.163 c 0
 192.735 153.122 199.307 145.989 206.982 140.572 c 0
 236.819 119.514 299.153 84.3799 392.789 84.3789 c 0
 462.56 84.3789 518.042 94.8711 550.584 107.586 c 0
 557.955 110.466 563.149 113.068 566.569 115.042 c 0
 569.894 116.961 580.46 122.905 589.753 141.812 c 0
 592.671 147.746 595.418 154.956 597.5 163.286 c 0
 603.398 186.877 602.464 210.319 589.714 232.402 c 0
 561.887 280.602 487.65 307.009 399.509 324.778 c 0
 346.913 335.382 270.529 359.571 238.99 414.201 c 0
 225.393 437.752 220.26 466.956 229.191 502.682 c 0
 242.015 553.974 284.084 604.423 350.894 642.995 c 0
 374.609 656.688 403.088 669.656 435.37 679.712 c 0
 466.446 689.394 517.863 701.459 582.063 701.459 c 0
 633.939 701.459 683.296 695.868 729.75 685.095 c 0
 753.078 679.685 772.371 667.547 784.54 646.47 c 0
 796.048 626.538 799.405 601.564 792.171 572.628 c 0
 786.116 548.409 750.004 518.06 711.562 504.882 c 0
 673.12 491.704 646.835 500.665 652.89 524.884 c 0
 656.602 539.733 654.898 555.855 648.072 567.681 c 0
EndSplineSet
Fore
742 250 m 0
 742 119.629 578.149 -16 307 -16 c 0
 250 -16 161 -6 81 51 c 0
 53 70 39 99 39 129 c 0
 39 214 141 290 218 290 c 0
 236 290 245 282 245 270 c 0
 245 257 228 226 182 204 c 1
 181 200 180 195 180 191 c 0
 180 174 187 154 207 141 c 0
 237 120 299 84 393 84 c 0
 482 84 543 101 567 115 c 0
 585 126 601 157 601 189 c 0
 601 243 559 293 400 325 c 0
 275.03 350.151 224 407 224 470 c 0
 224 572 364 701 582 701 c 0
 634 701 682.983 695.927 730 685 c 0
 768.986 675.939 796 646 796 602 c 0
 796 593 795 583 792 573 c 0
 785 543 726 499 680 499 c 0
 663 499 652 506 652 518 c 0
 652 525 655 527 655 541 c 0
 655 564 642 583 622 587 c 0
 581 597 539 602 496 602 c 0
 445 602 402 591 386 582 c 0
 379 578 366 556 366 530 c 0
 366 466 443 435 505 423 c 0
 583 407 742 371 742 250 c 0
EndSplineSet
EndChar
StartChar: T
Encoding: 84 84 21
Width: 742
Flags: HMW
Back
377.313 151.088 m 2
 477.752 552.836 l 2
 483.875 577.33 522.302 609.641 563.525 624.957 c 0
 604.75 640.275 633.237 632.827 627.113 608.334 c 2
 526.676 206.586 l 2
 509.535 138.022 482.868 69.3506 446.852 2.04883 c 0
 432.332 -25.084 388.843 -55.1543 349.778 -65.0732 c 0
 310.713 -74.9922 290.792 -61.0205 305.312 -33.8877 c 0
 337.09 25.4941 361.521 87.917 377.313 151.088 c 2
994.869 636.842 m 0
 993.296 635.934 988.719 632.962 987.146 632.054 c 0
 956.369 614.285 888.161 580.928 811.491 580.929 c 2
 259.296 580.929 l 2
 244.859 580.929 226.872 577.442 220.416 573.715 c 0
 216.078 571.21 205.263 559.508 198.342 539.34 c 0
 189.621 513.926 149.468 482.151 108.714 468.416 c 0
 67.9609 454.68 41.9639 464.158 50.6846 489.573 c 0
 69.7832 545.227 119.449 597.343 184.942 635.155 c 0
 245.388 670.052 307.25 685.598 357.301 685.599 c 2
 909.497 685.598 l 2
 936.019 685.598 951.271 693.263 951.672 693.494 c 0
 953.245 694.402 957.823 697.374 959.396 698.282 c 0
 999.906 721.671 1040.73 726.89 1050.52 709.933 c 0
 954.359 613.454 913.536 608.235 903.745 625.192 c 0
 893.955 642.15 918.887 674.895 959.396 698.282 c 1
 1060.31 692.975 1035.38 660.23 994.869 636.842 c 0
EndSplineSet
Fore
1030 674 m 0
 1030 646 913 581 811 581 c 2
 620 581 l 1
 527 207 l 2
 509.851 138.037 483 69 447 2 c 0
 427 -34 364 -68 327 -68 c 0
 310 -68 301 -62 301 -50 c 0
 301 -31 345.145 24.2117 377 151 c 2
 478 553 l 2
 480 562 486 571 495 581 c 1
 259 581 l 2
 217 581 207 565 198 539 c 0
 187 506 122 462 76 462 c 0
 59 462 49 469 49 480 c 0
 49 483 50 486 51 490 c 0
 88 597 238 686 357 686 c 2
 909 686 l 2
 964 686 975 720 1026 720 c 0
 1038 720 1047 717 1051 710 c 1
 1024 684 l 1
 1028 681 1030 677 1030 674 c 0
EndSplineSet
EndChar
StartChar: U
Encoding: 85 85 22
Width: 802
Flags: HMW
Back
329.386 48.1357 m 0
 301.908 32.2715 279.526 21.499 258.269 12.6709 c 0
 197.056 -12.749 156.368 -15.5176 136.948 -15.5176 c 0
 75.792 -15.5176 41.8193 12.582 23.291 44.6748 c 0
 -6.54199 96.3477 -0.917969 163.359 10.6455 209.617 c 0
 42.5811 337.359 163.028 544.139 140.597 582.991 c 0
 138.084 587.344 139.168 585.694 137.907 585.694 c 0
 129.628 585.694 117.233 585.167 101.842 581.329 c 0
 96.0439 579.884 83.7412 576.424 70.5518 569.116 c 0
 32.5322 548.051 -5.0625 545.393 -13.3643 563.182 c 0
 -21.667 580.971 2.45117 612.504 40.4717 633.569 c 0
 79.9932 655.467 116.263 668.228 145.274 675.461 c 0
 173.273 682.441 199.487 685.59 223.744 685.591 c 0
 231.042 685.591 262.881 686.349 277.064 661.781 c 0
 314.95 596.159 184.349 395.045 149.928 257.361 c 0
 136.784 204.786 141.605 154.907 159.759 123.464 c 0
 176.524 94.4238 201.01 84.3789 222.785 84.3789 c 0
 233.567 84.3789 246.344 87.0029 262.291 93.626 c 0
 271.273 97.3555 281.826 102.561 293.93 109.549 c 0
 448.362 198.71 670.951 461.328 708.562 611.77 c 0
 714.616 635.988 750.729 666.339 789.172 679.517 c 0
 827.613 692.693 853.898 683.732 847.844 659.514 c 0
 803.169 480.814 550.002 175.508 329.386 48.1357 c 0
700.912 213.813 m 0
 691.11 174.607 685.895 135.311 685.442 96.8936 c 0
 685.391 92.5303 686.438 88.5273 688.308 85.29 c 0
 691.236 80.2168 695.971 77.5195 699.131 76.6768 c 0
 702.609 75.7471 698.322 78.8926 680.294 69.7969 c 1
 727.868 93.7998 l 2
 766.458 113.269 801.856 113.226 806.883 93.7031 c 0
 811.908 74.1807 784.669 42.5352 746.079 23.0664 c 2
 698.506 -0.935547 l 2
 647.396 -26.7227 610.741 -26.1182 589.292 -20.3906 c 0
 571.307 -15.5889 559.216 -6.27539 551.839 6.50098 c 0
 546.979 14.9209 544.31 24.9365 544.446 36.6064 c 0
 544.942 78.748 550.646 122.137 561.63 166.069 c 0
 599.349 316.945 649.041 467.725 710.318 617.056 c 0
 720.82 642.647 759.756 671.744 797.228 682.003 c 0
 834.699 692.263 856.589 679.819 846.087 654.229 c 0
 786.401 508.777 737.829 361.483 700.912 213.813 c 0
EndSplineSet
Fore
284 631 m 0
 284 531 143 324 143 199 c 0
 143 135 172 84 223 84 c 0
 321 84 575 334 674 525 c 2
 710 617 l 2
 723 650 780 686 821 686 c 0
 836 686 849 679 849 666 c 0
 849 657 835 612 811 565 c 0
 756 417 686 199 686 100 c 0
 686 94 687 82 696 77 c 1
 728 94 l 2
 747 104 766 108 780 108 c 0
 794 108 807 103 807 89 c 0
 807 69 782 41 746 23 c 2
 699 -1 l 2
 667 -17 639 -24 615 -24 c 0
 572 -24 544 -0 544 36 c 0
 544 80 548 123 586 259 c 1
 443 109 269 -16 137 -16 c 0
 40 -16 1 55 1 137 c 0
 1 273 143 494 143 570 c 0
 143 582 139 586 138 586 c 0
 75 586 60 551 13 551 c 0
 -1 551 -15 556 -15 571 c 0
 -15 617 113 686 225 686 c 0
 254 686 284 675 284 631 c 0
EndSplineSet
EndChar
StartChar: V
Encoding: 86 86 23
Width: 841
Flags: HMW
Back
205.537 496.1 m 0
 167.589 561.831 119.882 589.98 72.9053 589.98 c 0
 42.7715 589.98 34.9316 611.473 55.4062 637.954 c 0
 75.8809 664.436 116.954 685.928 147.089 685.928 c 0
 202.203 685.928 275.662 668.13 332.62 569.472 c 0
 419.241 419.433 424.739 153.139 422.716 51.9297 c 1
 382.098 26.0205 349.575 7.87109 332.605 0 c 1
 290.342 -36.623 l 1
 289.348 -34.7148 289.181 -33.1982 289.951 -32.4277 c 1
 287.58 -34.7988 311.607 312.371 205.537 496.1 c 0
779.944 458.682 m 0
 781.25 462.269 782.179 465.33 782.905 468.24 c 0
 782.95 468.418 782.416 465.738 782.417 465.761 c 0
 782.535 484.419 761.837 513.241 725.294 526.543 c 0
 710.522 531.92 693.58 534.888 675.446 534.887 c 0
 654.762 534.887 647.536 568.711 659.317 610.387 c 0
 671.099 652.062 697.447 685.887 718.131 685.887 c 0
 740.29 685.888 760.954 682.319 779.532 675.557 c 0
 814.992 662.65 869.219 627.795 868.657 539.22 c 0
 868.52 517.463 865.144 496.774 860.49 478.163 c 0
 856.771 463.284 852.187 448.521 847.001 434.273 c 0
 787.065 269.604 841.299 419.386 841.165 419.053 c 0
 732.013 148.141 351.098 -59.2871 321.571 -72.9824 c 0
 298.56 -83.6553 284.827 -59.6221 290.919 -19.3359 c 0
 297.01 20.9502 320.629 62.3086 343.64 72.9814 c 0
 446.276 120.588 723.485 318.356 778.379 454.603 c 0
 778.705 455.411 720.009 294.013 779.944 458.682 c 0
EndSplineSet
Fore
654 573 m 0
 654 625 691 686 718 686 c 0
 803 686 869 635 869 540 c 0
 869 529 868.756 494.089 847 434 c 2
 819 357 l 1
 841 419 l 1
 841 419 691 98 322 -73 c 0
 318 -75 314 -76 311 -76 c 0
 297 -76 289 -60 290 -34 c 1
 289 -34 291 -2 291 38 c 0
 291 482 160 590 73 590 c 0
 54 590 44 598 44 611 c 0
 44 641 102 686 147 686 c 0
 368 686 418 375 423 118 c 1
 548 197 734 346 778 455 c 1
 753 384 l 1
 753 384 778 450 782 466 c 1
 782 487 751 535 675 535 c 0
 661 535 654 550 654 573 c 0
EndSplineSet
EndChar
StartChar: W
Encoding: 87 87 24
Width: 1320
Flags: HMW
Back
183.662 513.035 m 0
 151.835 568.165 111.632 589.98 71.9053 589.98 c 0
 41.7715 589.98 33.9316 611.473 54.4062 637.954 c 0
 74.8809 664.436 115.954 685.928 146.089 685.928 c 0
 242.729 685.928 287.971 625.856 310.745 586.408 c 0
 373.216 478.201 382.693 295.369 379.633 164.276 c 1
 439.099 226.892 495.151 291.879 547.443 358.744 c 0
 606.244 433.933 660.098 511.247 708.707 589.966 c 1
 714.718 589.966 l 1
 708.436 601.674 l 2
 699.043 619.001 719.989 649.315 755.188 669.342 c 0
 790.39 689.368 826.58 691.56 835.973 674.233 c 0
 891.657 571.515 936.381 461.853 969.64 346.487 c 0
 994.723 259.484 1013.21 169.482 1025 77.0596 c 1
 987.853 39.7305 957.52 12.1982 942.752 0 c 2
 899.599 -37.3945 l 1
 899.538 -37.6387 l 1
 888.881 72.1191 868.704 178.695 839.198 281.041 c 0
 815.922 361.78 786.902 439.672 752.331 514.249 c 1
 696.733 423.453 635.779 335.762 569.995 251.644 c 0
 482.31 139.519 386.396 34.1797 283.437 -63.4951 c 0
 259.668 -86.0439 239.335 -75.8994 238.052 -40.8496 c 0
 237.967 -38.5205 238.051 -36.1396 238.051 -33.7178 c 0
 237.913 -32.7646 237.95 -31.8916 238.17 -31.1299 c 2
 238.388 -27.3398 238.799 -23.4609 239.388 -19.5312 c 0
 244.236 39.5537 279.038 347.83 183.662 513.035 c 0
1256.47 452.898 m 0
 1258.63 458.825 1260.16 463.87 1261.25 468.24 c 0
 1263.18 475.944 1257.74 490.53 1255.42 495.268 c 0
 1244.68 517.229 1225.93 526.21 1216.27 529.726 c 0
 1207.16 533.042 1196.82 534.888 1185.45 534.888 c 0
 1164.77 534.888 1157.54 568.712 1169.32 610.388 c 0
 1181.1 652.063 1207.45 685.888 1228.14 685.888 c 0
 1243.51 685.888 1257.68 683.41 1270.51 678.74 c 0
 1297.1 669.06 1318.1 650.406 1331.86 622.266 c 0
 1348.66 587.902 1353.81 538.076 1338.83 478.163 c 0
 1334.61 461.246 1329.39 444.586 1323.53 428.49 c 0
 1235.86 187.638 951.261 -58.5996 941.604 -66.5752 c 0
 917.81 -86.2314 899.011 -72.3574 899.645 -35.6084 c 0
 900.278 1.1416 920.104 46.9199 943.899 66.5762 c 0
 1031.1 138.603 1213.8 335.666 1256.47 452.898 c 0
EndSplineSet
Fore
43 611 m 0
 43 641 101 686 146 686 c 0
 323 686 380 480 380 211 c 2
 380 164 l 1
 502 293 614 437 709 590 c 1
 715 590 l 1
 708 602 l 2
 707 604 706 608 706 611 c 0
 706 640 762 686 809 686 c 0
 822 686 832 682 836 674 c 0
 940 482 992 292 1017 134 c 1
 1112 230 1239 380 1261 468 c 2
 1262 470 1262 471 1262 473 c 0
 1262 493 1240 535 1185 535 c 0
 1171 535 1164 550 1164 573 c 0
 1164 625 1201 686 1228 686 c 0
 1300 686 1347 635 1347 548 c 0
 1347 302 990 -26 942 -67 c 0
 934 -73 927 -76 921 -76 c 0
 908 -76 900 -62 900 -37 c 0
 885 118 847 310 752 514 c 1
 621 300 462 106 283 -63 c 0
 275 -72 267 -76 260 -76 c 0
 247 -76 238 -61 238 -34 c 0
 238 -30 250 58 250 169 c 0
 250 336 214 590 72 590 c 0
 53 590 43 598 43 611 c 0
EndSplineSet
EndChar
StartChar: X
Encoding: 88 88 25
Width: 918
Flags: HMW
Back
814.664 45.5098 m 1
 814.04 45.1494 812.209 43.9941 811.585 43.6338 c 0
 804.483 39.5342 797.06 35.5947 787.289 31.0674 c 0
 767.566 21.9316 716.833 0.351562 650.739 0.351562 c 0
 591.743 0.352539 563.657 31.332 548.068 58.332 c 0
 535.11 80.7764 527.463 107.064 522.983 133.584 c 2
 463.654 484.793 l 2
 461.337 498.514 455.751 525.957 442.551 548.82 c 0
 425.524 578.312 404.606 585.693 390.511 585.693 c 0
 374.556 585.694 349.645 585.544 338.487 584.124 c 0
 335.358 583.726 349.359 585.394 369.38 596.952 c 1
 368.994 596.73 371.659 595.435 366.709 591.612 c 0
 333.435 565.918 290.051 553.18 269.871 563.178 c 0
 249.691 573.177 260.318 602.146 293.593 627.84 c 1
 290.566 625.502 292.217 634.286 333.924 658.365 c 0
 359.643 673.214 381.46 679.695 405.566 682.765 c 0
 425.656 685.322 451.742 685.59 476.349 685.59 c 0
 535.344 685.59 563.431 654.61 579.019 627.61 c 0
 591.978 605.166 599.624 578.878 604.104 552.357 c 2
 663.434 201.149 l 2
 665.751 187.428 671.337 159.985 684.537 137.121 c 0
 701.563 107.63 722.481 100.248 736.577 100.248 c 0
 750.691 100.248 771.016 102.908 779.29 106.742 c 0
 779.294 106.743 776.113 105.038 776.129 105.047 c 0
 776.753 105.407 778.584 106.562 779.208 106.923 c 1
 778.584 109.303 781.903 113.169 786.616 115.553 c 0
 791.33 117.938 795.662 117.94 796.287 115.561 c 0
 796.287 115.561 l 1
 835.201 132.546 867.074 128.705 867.433 106.987 c 0
 867.791 85.2695 836.5 53.8574 797.586 36.8721 c 1
 797.586 36.8721 l 0
 796.961 39.252 800.28 43.1191 804.994 45.5029 c 0
 809.707 47.8867 814.04 47.8896 814.664 45.5098 c 1
73.877 35.2705 m 0
 67.3359 46.5996 64.7559 60.9854 69.2627 79.0146 c 0
 71.3369 87.3096 75.0547 96.4854 83.1377 108.721 c 0
 117.604 160.896 197.602 209.634 245.113 237.064 c 0
 401.08 327.111 643.889 430.562 781.981 510.29 c 0
 815.738 529.779 849.677 552.805 854.277 559.77 c 0
 854.279 559.773 853.986 559.106 854.005 559.183 c 0
 854.733 562.096 855.173 566.741 852.205 571.883 c 0
 846.032 582.573 832.382 585.693 823.111 585.693 c 0
 792.237 585.693 786.408 608.07 810.1 635.643 c 0
 833.791 663.214 878.075 685.59 908.948 685.59 c 0
 941.782 685.59 974.653 674.956 988.673 650.672 c 0
 995.214 639.343 997.795 624.957 993.287 606.928 c 0
 991.214 598.632 987.496 589.457 979.413 577.222 c 0
 944.946 525.045 864.948 476.309 817.438 448.878 c 0
 661.47 358.831 418.662 255.379 280.569 175.651 c 0
 256.331 161.658 214.006 134.852 208.273 126.173 c 0
 208.271 126.169 208.564 126.836 208.545 126.759 c 0
 207.816 123.846 207.377 119.201 210.346 114.06 c 0
 216.518 103.368 230.168 100.248 239.44 100.248 c 0
 270.313 100.247 276.142 77.8701 252.45 50.2988 c 0
 228.759 22.7275 184.475 0.350586 153.602 0.351562 c 0
 120.769 0.352539 87.8975 10.9863 73.877 35.2705 c 0
EndSplineSet
Fore
353 585 m 1
 347 585 338 584 338 584 c 1
 338 583 340 583 343 583 c 0
 345 583 349 583 353 585 c 1
779 107 m 1
 779 114.8 796 120.285 796 116 c 1
 813 123 828 126 840 126 c 0
 857 126 867 120 867 107 c 0
 867 64 761 0 651 0 c 0
 572 0 536.083 57.014 523 134 c 2
 497 287 l 1
 337 210 224 148 208 126 c 1
 205 112 219 100 239 100 c 0
 258 100 267 93 267 81 c 0
 267 49 201 0 154 0 c 0
 106 0 67 24 67 62 c 0
 67 158 297 270 485 360 c 1
 464 485 l 2
 448 576 405 586 391 586 c 0
 381 586 369 586 358 585 c 1
 334 569 307 560 287 560 c 0
 270 560 260 566 260 579 c 0
 260 593 272 611 294 628 c 1
 292 633 346 675 406 683 c 0
 426 685 452 686 476 686 c 0
 555 686 590.961 628.993 604 552 c 2
 625 428 l 1
 752 491 841 542 854 559 c 1
 857 574 843 586 823 586 c 0
 805 586 796 593 796 605 c 0
 796 637 862 686 909 686 c 0
 957 686 996 662 996 624 c 0
 996 534 792 430 638 355 c 1
 663 201 l 2
 679 109 722 100 737 100 c 0
 755 100 770 103 779 107 c 1
EndSplineSet
EndChar
StartChar: Y
Encoding: 89 89 26
Width: 849
Flags: HMW
Back
306.398 479.158 m 0
 257.562 563.748 201.012 589.98 153.244 589.98 c 2
 152.745 589.979 l 1
 125.912 565.816 86.2324 551.129 62.4414 556.941 c 0
 37.7617 562.972 39.4814 588.793 66.2803 614.579 c 0
 83.3701 631.022 101.454 643.773 118.199 653.441 c 0
 143.507 668.053 170.721 678.077 194.309 682.621 c 0
 204.735 684.629 215.202 685.928 227.428 685.928 c 0
 333.439 685.928 395.189 618.856 433.481 552.53 c 0
 512.993 414.804 535.727 195.863 541.718 82.8389 c 1
 497.395 45.8906 452.744 13.2998 411.263 -13.6406 c 1
 409.233 64.2988 398.279 320.008 306.398 479.158 c 0
195.345 -23.9873 m 0
 210.874 -29.6396 228.311 -32.6992 246.97 -32.6992 c 0
 324.554 -32.6992 699.591 211.799 787.276 452.709 c 0
 791.144 463.333 794.331 473.688 796.891 483.925 c 0
 799.051 492.565 794.1 504.835 791.925 509.117 c 0
 785.437 521.889 770.898 538.966 742.982 549.127 c 0
 729.256 554.122 713.5 556.899 696.561 556.899 c 0
 675.979 556.899 666.572 585.795 675.565 621.398 c 0
 684.559 657.003 708.562 685.898 729.144 685.898 c 0
 750.755 685.898 770.906 682.412 789.087 675.796 c 0
 831.875 660.222 852.983 631.516 862.989 611.82 c 0
 879.368 579.581 884.371 535.555 871.608 484.502 c 0
 866.854 465.482 861.025 446.679 854.337 428.301 c 0
 732.828 94.4648 307.539 -161.698 214.387 -161.698 c 0
 191.04 -161.698 169.165 -157.909 149.24 -150.656 c 0
 76.2725 -124.099 54.8877 -61.166 49.8418 -45.3594 c 0
 41.7607 -20.0459 52.2119 20.8184 73.1689 45.8555 c 0
 94.126 70.8936 117.692 70.6709 125.773 45.3584 c 0
 139.866 1.20996 178.601 -17.8936 195.345 -23.9873 c 0
EndSplineSet
Fore
47 -26 m 0
 47 11 74 64 104 64 c 0
 114 64 122 58 126 45 c 0
 140 2 184 -33 247 -33 c 0
 274 -33 336 -4 409 44 c 1
 391 356 299 590 153 590 c 1
 130 569 98 556 74 556 c 0
 56 556 45 564 45 577 c 0
 45 611 139 686 227 686 c 0
 333 686 394.987 618.993 433 553 c 0
 500.977 434.987 528 259 538 140 c 1
 764 329 797 475 797 489 c 0
 797 511 769 557 697 557 c 0
 681 557 672 573 672 596 c 0
 672 640 704 686 729 686 c 0
 821 686 879 627 879 540 c 0
 879 523 876 504 872 485 c 0
 781 123 312 -162 214 -162 c 0
 89 -162 47 -58 47 -26 c 0
EndSplineSet
EndChar
StartChar: Z
Encoding: 90 90 27
Width: 911
Flags: HMW
Back
737.09 574.818 m 2
 446.285 580.935 l 2
 436.349 580.935 416.189 580.534 392.675 574.973 c 0
 387.777 573.814 376.089 570.841 370.508 567.619 c 0
 370.497 567.612 371.683 568.32 372.029 568.67 c 1
 367.14 563.735 362.052 552.709 359.73 543.423 c 0
 353.606 518.929 315.18 486.618 273.956 471.301 c 0
 232.732 455.983 204.245 463.431 210.368 487.925 c 0
 215.837 509.798 228.696 540.092 262.162 573.866 c 0
 278.819 590.677 303.613 610.918 335.035 629.059 c 0
 377.151 653.375 418.444 666.969 449.321 674.271 c 0
 483.731 682.408 515.904 685.591 545.578 685.591 c 2
 836.383 679.475 l 2
 857.363 679.476 877.492 681.245 897.552 684.489 c 0
 934.124 690.404 947.586 672.256 927.602 643.979 c 0
 907.617 615.702 861.716 587.952 825.144 582.037 c 0
 794.873 577.141 765.087 574.819 737.09 574.818 c 2
527.405 386.609 m 0
 624.552 463.996 717.978 547.396 806.828 636.277 c 0
 835.659 665.118 883.482 687.175 913.577 685.511 c 0
 943.672 683.847 944.698 659.09 915.867 630.249 c 0
 819.869 534.217 717.806 442.985 610.359 357.395 c 0
 465.302 241.842 315.502 132.206 161.646 29.0537 c 0
 123.196 3.27539 78.9404 -7.06152 62.8604 5.97949 c 0
 46.7793 19.0195 64.9336 50.5254 103.383 76.3027 c 0
 248.272 173.443 389.785 276.981 527.405 386.609 c 0
288.657 111.127 m 2
 707.778 105.01 l 2
 711.956 105.01 715.132 105.458 717.32 106.006 c 0
 718.293 106.249 715.692 105.366 713.808 104.278 c 1
 713.817 104.284 740.63 127.078 751.84 171.917 c 0
 757.963 196.41 796.39 228.721 837.614 244.038 c 0
 878.838 259.356 907.325 251.908 901.202 227.415 c 0
 872.252 111.613 763.079 51.1299 749.281 42.8379 c 0
 717.879 23.9668 686.88 13.2451 663.858 7.4834 c 0
 643.708 2.44043 625.171 0.34668 608.871 0.34668 c 2
 189.75 6.46387 l 2
 157.051 6.46387 124.646 4.55762 91.9023 0.84375 c 0
 56.7695 -3.1416 46.4492 16.8467 68.8662 45.459 c 0
 91.2832 74.0713 137.991 100.527 173.125 104.513 c 0
 212.231 108.948 251.073 111.127 288.657 111.127 c 2
655.624 335.728 m 0
 655.505 335.934 669.396 325.689 669.395 325.69 c 0
 658.769 327.99 594.831 328.501 544.053 328.502 c 2
 367.21 328.501 l 2
 339.483 328.501 328.104 347.989 341.81 372.002 c 0
 355.516 396.014 389.141 415.502 416.867 415.502 c 2
 593.711 415.502 l 2
 623.462 415.502 714.234 416.122 739.679 410.615 c 0
 748.214 408.769 757.308 404.979 761.873 397.071 c 0
 763.665 393.966 764.923 381.74 763.868 377.523 c 0
 758.079 354.387 728.724 330.395 698.342 323.971 c 0
 667.96 317.547 647.999 331.111 653.787 354.248 c 0
 653.787 354.248 655.624 335.727 655.624 335.728 c 0
EndSplineSet
Fore
57 19 m 0
 57 65.2595 145.621 88.0792 454 329 c 1
 367 329 l 2
 347 329 336 338 336 353 c 0
 336 379 376 416 417 416 c 2
 563 416 l 1
 639 478 698 532 744 575 c 1
 737 575 l 1
 446 581 l 2
 417 581 385 575 372 568 c 1
 367 563 362 552 360 543 c 0
 352 511 283 463 236 463 c 0
 220 463 210 470 210 482 c 0
 210 488 l 1
 234 584 379 686 546 686 c 2
 836 679 l 2
 881 679 896 686 910 686 c 0
 925 686 937 681 937 667 c 0
 937 652 921 635 915 629 c 0
 858 573 782 501 680 415 c 1
 741 414 765 410 765 386 c 0
 765 359 724 322 684 322 c 0
 673 322 684 328 574 328 c 1
 491 262 394 190 282 111 c 1
 289 111 l 1
 708 105 l 2
 711 105 713 105 715 106 c 1
 721 111 742 133 752 172 c 0
 760 205 829 252 875 252 c 0
 892 252 902 246 902 234 c 0
 902 232 902 230 901 227 c 0
 869 97 717 0 609 0 c 2
 190 6 l 2
 126 6 94 0 83 0 c 0
 68 0 57 6 57 19 c 0
EndSplineSet
EndChar
